<?xml version="1.0" standalone="no"?>
<!DOCTYPE svg PUBLIC "-//W3C//DTD SVG 20010904//EN"
 "http://www.w3.org/TR/2001/REC-SVG-20010904/DTD/svg10.dtd">
<svg version="1.0" xmlns="http://www.w3.org/2000/svg"
 width="929.000000pt" height="878.000000pt" viewBox="0 0 929.000000 878.000000"
 preserveAspectRatio="xMidYMid meet">
<metadata>
Created by potrace 1.16, written by Peter Selinger 2001-2019
</metadata>
<g transform="translate(0.000000,878.000000) scale(0.100000,-0.100000)"
fill="#000000" stroke="none">
<path d="M4815 8774 c-202 -23 -370 -58 -500 -104 -52 -18 -81 -21 -220 -20
-138 1 -389 -21 -403 -35 -3 -2 15 -26 39 -53 43 -48 98 -138 89 -144 -127
-92 -189 -145 -299 -255 -74 -73 -131 -136 -129 -139 3 -2 40 11 83 31 91 41
256 103 372 138 l82 25 41 -68 c46 -79 167 -242 233 -315 l45 -50 11 45 c6 25
25 88 42 140 45 138 158 360 184 360 6 0 66 7 135 15 69 9 226 18 349 22 l224
6 -54 27 c-78 40 -272 115 -361 141 -43 13 -78 26 -78 29 0 23 221 154 322
190 l53 19 -115 -1 c-63 0 -128 -3 -145 -4z"/>
<path d="M5910 8338 c0 -36 -5 -89 -12 -116 l-11 -50 -56 25 c-157 71 -437
154 -574 169 l-62 7 80 -58 c138 -99 343 -280 427 -378 l46 -53 -51 -75 c-66
-97 -163 -222 -228 -293 -28 -31 -49 -59 -46 -62 2 -3 63 6 133 20 150 29 396
59 450 54 36 -3 42 -9 107 -103 65 -94 182 -288 276 -455 l42 -75 -5 170 c-3
94 -12 213 -21 265 -8 52 -18 114 -21 137 l-7 42 58 -15 c69 -18 163 -59 187
-81 33 -30 31 -4 -7 64 -76 140 -152 240 -273 363 -91 93 -133 144 -164 200
-56 104 -147 233 -212 305 l-55 60 -1 -67z"/>
<path d="M3192 8279 c-174 -152 -373 -409 -486 -628 -76 -147 -149 -349 -175
-487 -7 -32 -14 -70 -17 -84 -2 -14 14 8 36 49 60 108 195 301 204 290 1 -2
20 -35 41 -74 21 -38 57 -97 79 -130 l41 -60 2 65 c4 101 23 256 44 360 18 92
21 97 66 138 92 83 219 189 287 240 l69 52 -54 0 c-30 0 -94 -7 -144 -15 -49
-8 -91 -12 -94 -9 -8 7 79 179 137 273 30 47 56 89 59 94 10 16 -7 3 -95 -74z"/>
<path d="M4247 7773 c-9 -15 -56 -238 -71 -343 -16 -102 -36 -301 -36 -348 0
-17 -9 -27 -32 -36 -179 -73 -349 -145 -469 -199 l-144 -65 -132 -5 c-72 -4
-190 -14 -262 -23 -72 -10 -133 -15 -135 -13 -8 8 -27 139 -40 281 l-12 133
-32 -50 c-51 -80 -129 -242 -166 -345 l-34 -95 -73 -37 c-41 -21 -87 -48 -102
-60 l-29 -23 22 -55 c12 -30 44 -88 71 -128 l49 -73 0 -99 c0 -118 13 -222 45
-344 27 -109 50 -167 58 -146 2 8 17 53 32 100 21 66 94 230 110 248 2 2 43
-26 93 -62 92 -68 283 -188 289 -182 2 1 -20 51 -47 111 -28 59 -73 174 -101
257 l-51 149 58 67 c73 84 271 282 347 346 l57 49 38 -15 c213 -88 378 -152
478 -188 l122 -42 6 -81 c14 -169 70 -502 107 -640 l11 -40 60 104 c111 191
301 491 314 496 7 3 102 -18 211 -45 163 -42 351 -84 568 -129 27 -5 20 5 -65
96 -246 265 -433 488 -426 507 7 18 141 202 305 418 179 235 166 216 150 216
-26 0 -432 -108 -602 -159 -92 -28 -172 -51 -176 -51 -11 0 -175 247 -276 415
-91 151 -82 138 -88 128z"/>
<path d="M6356 6697 c-69 -174 -208 -483 -224 -499 -26 -26 -546 -27 -650 -1
l-26 6 24 -34 c37 -51 285 -303 356 -360 l62 -51 -51 -81 c-188 -305 -457
-653 -598 -775 l-37 -32 -143 0 c-133 0 -343 14 -396 25 -18 4 -14 -3 20 -33
67 -61 142 -118 202 -152 30 -17 55 -35 55 -39 0 -12 -164 -91 -243 -117 l-72
-23 85 -1 c337 -1 764 135 1090 348 96 62 279 206 294 231 4 6 -31 -10 -76
-34 -46 -24 -117 -57 -159 -74 -76 -30 -268 -85 -274 -79 -2 2 1 28 6 58 5 30
9 118 7 194 l-2 139 95 26 c157 44 295 105 422 188 l69 44 84 -85 85 -84 23
46 c36 71 72 196 90 309 15 92 21 109 60 165 110 160 181 330 230 549 5 22 -7
14 -67 -45 -68 -68 -186 -144 -201 -129 -3 3 -6 31 -6 62 0 98 -48 511 -59
511 -3 0 -37 -78 -75 -173z"/>
<path d="M3262 5780 c63 -166 103 -258 163 -376 l72 -144 -62 -19 c-109 -34
-182 -44 -281 -39 -94 5 -94 5 -77 -15 31 -34 132 -98 227 -143 90 -42 287
-105 376 -119 40 -6 57 -19 145 -104 131 -128 257 -211 378 -251 47 -15 53
-10 34 27 -18 35 -45 161 -49 228 l-3 50 219 7 c121 4 223 11 227 15 5 5 -26
23 -69 42 -42 19 -145 69 -227 112 l-151 79 8 98 c9 106 41 341 64 460 8 41
13 76 11 78 -1 2 -34 -24 -72 -58 -177 -154 -419 -325 -439 -309 -6 4 -67 50
-136 101 -69 51 -165 127 -214 169 -131 112 -151 127 -144 111z"/>
<path d="M4330 3826 c-458 -59 -868 -232 -1215 -513 -55 -45 -127 -109 -160
-142 l-59 -61 34 -35 33 -34 81 77 c343 327 729 521 1211 608 79 15 153 18
350 18 265 0 337 -7 546 -60 367 -91 711 -279 986 -538 50 -47 95 -86 100 -86
5 0 22 14 38 30 l29 30 -40 41 c-74 78 -229 201 -363 290 -280 187 -601 311
-941 364 -143 22 -492 28 -630 11z"/>
<path d="M4182 3510 c-95 -20 -174 -39 -177 -42 -5 -4 84 -449 91 -457 2 -2
89 13 194 35 l190 38 -6 36 c-4 19 -10 38 -13 43 -4 4 -61 -4 -126 -18 -65
-14 -122 -22 -126 -18 -4 4 -10 29 -14 55 -8 54 -22 46 130 76 l90 18 -3 40
c-2 21 -5 41 -8 43 -2 2 -54 -6 -115 -18 -61 -13 -115 -19 -119 -14 -5 4 -12
25 -15 45 -8 44 -18 39 128 69 115 23 117 25 101 87 -8 26 10 28 -202 -18z"/>
<path d="M4859 3492 c-6 -31 -28 -136 -49 -232 -42 -198 -45 -183 48 -196 l47
-6 19 91 c12 61 23 91 32 91 7 0 57 -10 110 -21 53 -12 99 -17 104 -13 5 5 10
24 12 43 l3 34 -109 24 c-60 13 -111 24 -112 26 -3 3 17 89 22 95 1 2 50 -6
109 -18 61 -13 110 -19 114 -14 5 5 11 23 14 41 7 38 23 31 -178 73 -82 17
-155 33 -162 35 -7 2 -16 -17 -24 -53z"/>
<path d="M3530 3264 c-25 -20 -47 -37 -49 -39 -2 -2 19 -32 46 -67 116 -146
123 -158 123 -199 0 -31 -8 -47 -36 -78 -44 -50 -91 -67 -138 -51 -25 8 -55
39 -120 121 l-87 110 -50 -42 -50 -41 28 -37 c145 -193 180 -223 263 -229 47
-3 69 1 114 21 155 71 234 200 191 312 -15 40 -165 246 -183 252 -4 2 -27 -13
-52 -33z"/>
<path d="M5490 3094 c-124 -75 -224 -138 -223 -141 1 -3 28 -20 60 -39 l58
-32 46 25 46 26 97 -67 c70 -49 96 -72 92 -84 -21 -79 -19 -85 42 -139 l58
-51 37 262 c21 143 38 268 37 277 0 12 -110 100 -122 99 -2 -1 -104 -62 -228
-136z m219 -93 c-7 -44 -16 -85 -19 -92 -5 -8 -27 3 -69 32 -33 24 -61 45 -61
48 0 8 153 101 158 97 2 -2 -2 -40 -9 -85z"/>
<path d="M4354 2905 c-272 -50 -489 -157 -706 -348 -102 -89 -108 -101 -72
-138 l27 -28 92 88 c51 48 123 108 161 133 151 100 346 179 514 209 109 20
355 17 462 -4 263 -53 494 -175 680 -359 l91 -90 31 32 31 31 -100 97 c-206
201 -455 329 -734 376 -114 19 -373 20 -477 1z"/>
<path d="M434 2196 c-305 -58 -486 -343 -419 -659 41 -193 203 -356 393 -396
120 -25 279 -3 391 54 59 29 66 42 75 142 l6 72 -57 -35 c-136 -82 -268 -102
-368 -56 -109 50 -201 175 -226 305 -27 151 54 336 176 400 56 29 180 36 239
13 55 -21 121 -91 137 -145 9 -29 18 -41 31 -41 18 0 18 8 12 158 -4 96 -11
160 -18 164 -44 29 -269 44 -372 24z"/>
<path d="M8830 2141 c-190 -27 -295 -104 -321 -234 -25 -124 31 -227 154 -286
34 -16 112 -44 172 -62 191 -55 225 -79 225 -154 0 -86 -68 -129 -205 -130
-79 0 -97 3 -148 29 -66 32 -107 80 -132 157 -10 30 -22 49 -32 49 -14 0 -15
-18 -8 -152 4 -97 11 -156 19 -160 36 -23 170 -43 296 -43 111 0 147 4 205 22
115 36 202 111 225 193 30 106 -5 224 -82 280 -56 41 -87 54 -246 100 -163 48
-199 65 -217 101 -48 92 33 172 175 172 128 0 209 -43 255 -137 17 -34 34 -56
44 -56 14 0 16 15 13 127 -2 71 -8 133 -14 140 -26 31 -268 59 -378 44z"/>
<path d="M6548 2111 c-195 -63 -312 -232 -311 -452 1 -204 101 -372 270 -452
65 -31 73 -32 188 -32 100 1 129 5 177 24 116 45 214 143 259 259 31 79 38
254 14 338 -44 154 -154 271 -297 316 -80 24 -222 24 -300 -1z m198 -126 c120
-35 204 -192 204 -381 0 -183 -87 -297 -226 -297 -100 0 -171 53 -225 167 -38
81 -52 152 -47 255 5 138 56 221 157 257 47 17 77 17 137 -1z"/>
<path d="M1080 2099 c0 -12 7 -19 18 -19 41 0 42 -7 42 -433 l0 -409 -30 -11
c-16 -6 -30 -18 -30 -27 0 -13 24 -15 170 -15 155 0 170 2 170 18 0 10 -8 17
-20 17 -43 0 -51 35 -48 216 l3 169 170 0 170 0 3 -174 c2 -151 0 -176 -14
-192 -10 -11 -25 -19 -36 -19 -10 0 -18 -7 -18 -17 0 -16 15 -18 175 -18 160
0 175 1 175 18 0 10 -8 17 -18 17 -11 0 -26 8 -35 18 -15 17 -17 60 -17 413 0
416 1 423 45 431 11 2 21 10 23 19 3 15 -17 16 -173 16 -157 0 -176 -1 -173
-16 2 -9 13 -17 26 -19 37 -6 43 -33 40 -189 l-3 -148 -170 0 -170 0 -3 144
c-3 154 6 191 48 191 13 0 20 7 20 19 0 17 -11 18 -170 18 -159 0 -170 -1
-170 -18z"/>
<path d="M2480 2100 c0 -10 9 -20 20 -23 11 -3 22 -12 25 -20 6 -14 -283 -762
-310 -804 -8 -12 -24 -24 -35 -28 -11 -3 -20 -14 -20 -23 0 -15 16 -17 145
-17 124 0 145 2 145 15 0 9 -14 21 -31 27 -30 11 -31 15 -26 50 3 21 19 75 37
121 l32 82 138 0 139 0 31 -97 c17 -53 30 -106 28 -117 -2 -12 -17 -27 -35
-36 -18 -8 -33 -22 -33 -30 0 -13 27 -15 180 -15 158 0 180 2 180 16 0 9 -11
21 -25 27 -13 6 -30 24 -38 39 -8 15 -74 213 -147 439 l-133 411 -133 0 c-120
0 -134 -2 -134 -17z m150 -217 c0 -15 43 -190 66 -270 6 -23 5 -23 -91 -23
-88 0 -97 2 -92 18 3 9 27 79 54 154 45 128 63 163 63 121z"/>
<path d="M3320 2100 c0 -11 10 -20 29 -23 34 -7 42 -30 36 -107 -3 -30 -12
-201 -21 -380 -9 -179 -20 -333 -26 -343 -5 -10 -22 -20 -39 -24 -18 -3 -29
-12 -29 -22 0 -14 19 -16 155 -16 136 0 155 2 155 16 0 10 -11 19 -29 22 -62
13 -65 22 -57 221 3 98 6 236 6 305 0 78 4 121 9 116 6 -6 66 -156 134 -335
69 -179 128 -333 132 -343 6 -15 17 -17 67 -15 l60 3 116 342 c64 188 118 340
121 338 6 -7 40 -435 40 -518 1 -83 -9 -104 -54 -113 -23 -4 -35 -12 -35 -23
0 -14 20 -16 185 -16 170 0 185 1 185 18 0 9 -6 17 -14 17 -8 0 -23 8 -35 18
-19 16 -22 43 -50 407 -18 240 -25 398 -20 412 5 14 17 23 29 23 13 0 20 7 20
18 0 17 -11 19 -149 19 l-150 0 -107 -318 c-59 -176 -110 -319 -113 -319 -4 0
-61 143 -127 318 l-119 317 -153 1 c-138 1 -152 -1 -152 -16z"/>
<path d="M4680 2102 c0 -13 11 -26 28 -34 l27 -13 3 -385 c1 -212 0 -395 -3
-408 -3 -12 -17 -28 -30 -34 -14 -6 -25 -18 -25 -27 0 -14 22 -16 180 -16 160
0 180 2 180 16 0 10 -11 20 -25 23 -14 4 -34 15 -45 26 -19 19 -20 35 -20 374
l0 355 46 7 c175 26 277 -69 243 -227 -22 -100 -119 -160 -231 -143 -36 6 -40
5 -37 -12 11 -54 172 -80 286 -46 85 27 134 66 170 140 59 120 26 285 -71 351
-81 56 -126 63 -413 69 -260 4 -263 4 -263 -16z"/>
<path d="M5670 2099 c0 -12 7 -19 18 -19 41 0 42 -7 42 -433 l0 -409 -30 -11
c-16 -6 -30 -18 -30 -27 0 -13 24 -15 170 -15 155 0 170 2 170 18 0 10 -8 17
-19 17 -11 0 -27 10 -35 22 -14 19 -16 75 -16 408 0 333 2 389 16 408 8 12 24
22 35 22 12 0 19 7 19 19 0 17 -11 18 -170 18 -159 0 -170 -1 -170 -18z"/>
<path d="M7390 2105 c0 -8 12 -20 28 -27 l27 -13 3 -395 c1 -217 0 -405 -3
-417 -3 -13 -16 -25 -30 -29 -14 -3 -25 -13 -25 -23 0 -14 16 -16 135 -16 118
0 135 2 135 16 0 10 -11 19 -29 22 -17 4 -35 15 -41 26 -7 14 -9 127 -8 340
l3 321 234 -365 234 -365 73 0 74 0 0 426 c0 281 4 432 11 445 5 11 21 24 35
29 13 5 24 16 24 24 0 11 -26 14 -140 14 -114 0 -140 -3 -140 -14 0 -8 14 -17
31 -21 58 -11 60 -22 57 -323 l-3 -273 -194 315 -194 314 -148 2 c-121 0 -149
-2 -149 -13z"/>
<path d="M4863 735 c-99 -30 -186 -105 -225 -193 -29 -65 -36 -218 -14 -294
63 -216 304 -313 490 -198 27 17 50 29 51 28 1 -2 7 -16 12 -33 8 -24 16 -31
41 -33 l32 -3 0 140 c0 114 3 142 16 155 8 9 22 16 30 16 8 0 14 8 14 18 0 15
-13 17 -140 17 -123 0 -140 -2 -140 -16 0 -10 11 -19 29 -22 30 -6 41 -27 41
-85 0 -86 -49 -128 -140 -120 -67 7 -111 42 -151 123 -55 112 -50 249 12 335
75 104 235 116 327 25 23 -23 42 -52 42 -64 0 -14 6 -21 19 -21 18 0 19 6 14
98 -3 53 -11 100 -17 105 -53 36 -257 49 -343 22z"/>
<path d="M2360 725 c0 -8 7 -15 15 -15 31 0 35 -39 35 -330 0 -291 -4 -330
-35 -330 -8 0 -15 -7 -15 -15 0 -13 37 -15 270 -15 l269 0 5 33 c3 17 8 55 11
82 4 28 9 60 12 72 4 18 1 23 -14 23 -13 0 -23 -13 -33 -42 -22 -64 -57 -78
-197 -78 l-113 0 0 283 c0 262 1 285 18 300 10 10 24 17 30 17 7 0 12 7 12 15
0 13 -22 15 -135 15 -113 0 -135 -2 -135 -15z"/>
<path d="M3060 726 c0 -8 9 -18 20 -21 11 -3 22 -16 25 -28 3 -12 4 -155 3
-317 l-3 -295 -22 -10 c-13 -5 -23 -15 -23 -22 0 -10 63 -13 290 -13 l290 0 0
48 c0 26 3 71 6 100 6 48 5 52 -13 52 -15 0 -22 -9 -27 -30 -3 -17 -17 -42
-30 -55 -24 -24 -29 -25 -166 -25 l-140 0 0 115 0 115 89 0 c92 0 121 -11 121
-46 0 -8 6 -14 14 -14 11 0 14 21 14 105 0 83 -3 105 -14 105 -8 0 -14 -4 -14
-9 0 -5 -7 -17 -16 -25 -12 -12 -37 -16 -105 -16 l-89 0 0 105 0 105 139 0
c139 0 140 0 160 -26 12 -15 21 -33 21 -40 0 -8 7 -14 15 -14 16 0 20 61 9
133 l-7 37 -273 0 c-231 0 -274 -2 -274 -14z"/>
<path d="M4030 725 c0 -8 7 -15 15 -15 9 0 18 -7 21 -15 3 -8 -47 -148 -111
-312 -91 -232 -123 -304 -146 -324 -16 -14 -29 -29 -29 -32 0 -4 52 -7 115 -7
91 0 115 3 115 14 0 7 -9 16 -20 19 -32 8 -32 29 -2 113 l30 79 108 0 108 0
24 -77 c27 -86 25 -104 -13 -118 -57 -22 -23 -30 120 -30 80 0 145 4 145 8 0
5 -13 18 -29 30 -18 13 -35 39 -44 69 -9 26 -57 175 -107 331 l-91 282 -105 0
c-86 0 -104 -3 -104 -15z m166 -392 c-2 -2 -35 -3 -73 -1 l-70 3 39 105 c21
58 41 112 44 120 3 8 19 -39 35 -104 16 -65 28 -121 25 -123z"/>
<path d="M5480 727 c0 -7 10 -17 23 -22 22 -10 22 -12 27 -275 6 -294 9 -311
76 -369 42 -37 86 -51 190 -58 161 -11 268 29 316 119 22 41 23 57 28 308 5
263 5 265 28 275 12 5 22 15 22 22 0 10 -33 13 -135 13 -113 0 -135 -2 -135
-15 0 -8 9 -15 20 -15 37 0 41 -30 38 -283 -3 -264 -9 -290 -63 -315 -34 -15
-126 -15 -160 0 -53 24 -59 53 -63 296 -5 260 -1 289 33 298 14 3 25 12 25 20
0 11 -26 14 -135 14 -102 0 -135 -3 -135 -13z"/>
<path d="M6370 727 c0 -8 11 -19 25 -25 l25 -12 0 -315 0 -315 -25 -10 c-65
-25 -18 -30 270 -30 l295 0 0 78 c0 42 3 87 6 100 5 17 2 22 -14 22 -15 0 -24
-11 -34 -43 -21 -60 -40 -67 -195 -67 l-133 0 0 115 0 115 90 0 c84 0 90 -1
106 -25 31 -47 39 -31 38 77 -2 103 -14 135 -33 85 -12 -32 -28 -37 -122 -37
l-79 0 0 105 0 105 131 0 c72 0 139 -4 149 -10 10 -5 23 -23 28 -40 7 -17 18
-30 28 -30 14 0 16 7 10 38 -3 20 -6 58 -6 85 l0 47 -280 0 c-227 0 -280 -3
-280 -13z"/>
</g>
</svg>
