<?xml version="1.0" standalone="no"?>
<!DOCTYPE svg PUBLIC "-//W3C//DTD SVG 20010904//EN"
 "http://www.w3.org/TR/2001/REC-SVG-20010904/DTD/svg10.dtd">
<svg version="1.0" xmlns="http://www.w3.org/2000/svg"
 width="878.000000pt" height="1258.000000pt" viewBox="0 0 878.000000 1258.000000"
 preserveAspectRatio="xMidYMid meet">
<metadata>
Created by potrace 1.16, written by Peter Selinger 2001-2019
</metadata>
<g transform="translate(0.000000,1258.000000) scale(0.100000,-0.100000)"
fill="#000000" stroke="none">
<path d="M3725 12266 c-471 -190 -731 -299 -733 -309 -7 -33 143 -663 252
-1060 303 -1100 691 -2083 1149 -2907 264 -477 589 -960 891 -1325 111 -135
139 -165 114 -125 -251 410 -482 944 -647 1497 -193 647 -306 1302 -368 2133
-22 295 -25 1222 -5 1510 24 341 64 725 88 848 4 18 3 32 -2 32 -5 -1 -337
-133 -739 -294z"/>
<path d="M4741 12398 c-49 -231 -99 -587 -125 -898 -86 -1002 -10 -2069 214
-3040 55 -237 135 -539 146 -549 4 -3 4 5 1 19 -14 57 -37 278 -48 460 -37
615 59 1390 266 2136 113 408 290 890 460 1257 43 92 76 169 74 171 -11 10
-952 546 -959 546 -4 0 -17 -46 -29 -102z"/>
<path d="M3783 8775 c41 -210 60 -810 37 -1160 -26 -395 -94 -854 -170 -1145
-10 -41 -18 -76 -16 -77 7 -7 228 -53 322 -67 146 -22 385 -39 396 -28 6 6 3
84 -7 198 -68 795 -243 1552 -500 2164 -61 144 -71 163 -62 115z"/>
<path d="M4320 7740 c0 -3 22 -102 49 -220 95 -414 174 -831 206 -1090 8 -68
15 -126 15 -127 0 -9 112 0 228 17 150 22 389 77 398 91 3 6 -16 35 -43 66
-258 298 -563 744 -792 1158 -34 60 -61 107 -61 105z"/>
<path d="M6790 6475 c0 -94 3 -115 15 -115 11 0 15 18 17 78 l3 77 29 -77 c20
-57 33 -78 46 -78 13 0 25 21 46 78 l29 77 3 -77 c2 -60 6 -78 17 -78 12 0 15
21 15 115 0 105 -2 115 -18 115 -14 0 -27 -21 -51 -87 -19 -49 -36 -91 -40
-95 -3 -4 -22 35 -41 87 -26 72 -38 95 -52 95 -16 0 -18 -11 -18 -115z"/>
<path d="M4135 5544 c-496 -51 -847 -149 -1230 -344 -296 -150 -498 -294 -790
-564 l-60 -55 45 -44 45 -44 107 98 c152 137 254 218 398 314 436 289 911 457
1433 506 181 17 564 7 732 -19 634 -98 1220 -383 1668 -812 l94 -89 43 44 44
45 -49 51 c-28 28 -93 88 -145 133 -473 412 -1060 675 -1700 761 -110 15 -547
28 -635 19z"/>
<path d="M3781 5169 c-129 -27 -240 -54 -247 -60 -21 -17 -18 -36 42 -331 58
-281 68 -313 113 -361 67 -73 125 -78 350 -33 96 20 177 38 179 41 6 6 -19
145 -26 145 -2 0 -69 -13 -149 -30 -227 -47 -241 -44 -267 67 l-14 62 47 10
c25 5 106 22 179 37 108 23 132 31 132 45 0 15 -21 119 -25 126 -1 2 -82 -13
-179 -33 -98 -19 -180 -34 -182 -32 -5 6 -36 169 -32 173 2 2 89 20 193 41
105 21 191 39 193 40 2 1 -3 33 -10 71 -12 61 -16 68 -38 70 -14 1 -130 -20
-259 -48z"/>
<path d="M4890 5134 c-45 -19 -77 -50 -100 -94 -10 -20 -51 -159 -90 -310 -54
-205 -70 -281 -63 -299 6 -19 22 -29 68 -43 33 -9 62 -14 66 -10 3 4 24 76 45
159 21 84 44 153 49 153 6 0 86 -20 180 -44 93 -25 170 -44 171 -43 4 7 34
140 32 142 -2 2 -79 23 -173 48 -118 30 -171 49 -173 59 -2 8 7 41 19 72 32
86 38 87 229 38 87 -23 165 -42 173 -42 9 0 19 22 28 63 8 34 14 66 14 71 0 5
-74 29 -165 52 -177 47 -251 53 -310 28z"/>
<path d="M2818 4793 c-37 -29 -55 -50 -50 -57 5 -6 69 -85 142 -176 197 -242
206 -260 189 -342 -30 -139 -209 -206 -308 -115 -17 16 -266 318 -327 396 -4
4 -124 -92 -124 -100 0 -9 281 -353 333 -406 67 -69 131 -97 222 -96 100 0
170 30 251 106 86 80 116 139 122 239 4 70 2 82 -26 140 -28 59 -343 459 -360
458 -4 -1 -33 -22 -64 -47z"/>
<path d="M5672 4443 l-363 -236 68 -38 c37 -21 74 -39 81 -39 7 0 123 72 258
159 134 88 244 157 244 153 0 -12 -71 -257 -76 -261 -2 -3 -17 8 -33 23 l-29
28 -66 -44 c-36 -24 -66 -46 -66 -49 0 -4 100 -81 142 -110 5 -3 -1 -41 -13
-84 l-23 -78 63 -60 c48 -44 66 -56 72 -46 20 36 239 824 233 841 -8 25 -81
78 -108 78 -12 0 -184 -107 -384 -237z"/>
<path d="M4200 4223 c-409 -42 -760 -189 -1069 -448 -85 -72 -191 -179 -191
-194 0 -4 20 -24 45 -45 l46 -37 45 50 c168 187 470 378 736 465 201 66 304
81 558 80 195 0 239 -3 329 -22 365 -79 646 -228 899 -475 l102 -101 42 40
c24 21 45 40 47 42 3 1 -31 39 -75 83 -314 319 -717 512 -1164 559 -90 9 -274
11 -350 3z"/>
<path d="M4950 3170 c-261 -36 -459 -173 -565 -394 -122 -254 -117 -642 11
-886 126 -240 336 -365 634 -377 162 -6 283 17 408 79 109 53 229 168 287 271
112 204 145 499 81 748 -72 284 -250 470 -517 538 -90 23 -250 33 -339 21z
m265 -351 c72 -27 153 -101 194 -178 42 -79 61 -172 61 -302 0 -299 -138 -484
-373 -497 -283 -16 -454 200 -434 548 14 246 130 410 318 450 62 13 169 3 234
-21z"/>
<path d="M10 2340 l0 -800 560 0 560 0 0 165 0 165 -375 0 -375 0 0 155 0 155
336 2 337 3 1 162 1 163 -337 0 -338 0 0 150 0 150 365 0 365 0 0 165 0 165
-550 0 -550 0 0 -800z"/>
<path d="M1342 2583 c4 -616 3 -604 71 -743 40 -82 149 -193 232 -237 108 -56
186 -75 335 -80 115 -4 148 -2 224 16 264 63 421 226 472 489 11 58 14 187 14
593 l0 519 -185 0 -184 0 -3 -537 -3 -538 -28 -57 c-53 -107 -141 -158 -273
-158 -180 0 -280 95 -304 287 -6 43 -10 285 -10 538 l1 460 -181 3 -181 2 3
-557z"/>
<path d="M2912 2343 l3 -798 183 -3 182 -2 0 290 0 290 98 0 97 -1 160 -289
160 -290 203 0 c179 0 203 2 198 15 -3 9 -82 153 -176 322 -94 168 -169 307
-168 308 2 1 23 15 48 32 59 40 143 129 168 179 41 80 54 150 50 258 -6 120
-28 187 -92 274 -54 73 -153 140 -261 179 l-80 28 -388 3 -387 3 2 -798z m760
443 c57 -28 83 -77 83 -156 0 -81 -27 -129 -89 -159 -38 -19 -61 -21 -214 -21
l-172 0 0 181 0 180 178 -3 c148 -2 183 -6 214 -22z"/>
<path d="M6050 2341 l0 -801 181 2 182 3 -2 266 -2 267 198 4 c170 5 208 8
268 28 135 43 224 106 286 203 58 89 81 171 81 292 2 256 -125 430 -372 511
-48 15 -103 18 -437 22 l-383 3 0 -800z m736 442 c102 -55 127 -215 47 -304
-52 -57 -106 -70 -279 -67 l-139 3 -3 198 -2 199 167 -4 c150 -3 172 -6 209
-25z"/>
<path d="M7720 3114 c-6 -14 -68 -168 -139 -342 -327 -803 -491 -1212 -491
-1221 0 -7 67 -11 201 -11 l200 0 23 53 c13 28 40 98 61 155 l38 102 309 0
309 0 23 -52 c12 -29 40 -99 61 -155 l38 -103 205 0 204 0 -6 23 c-3 12 -147
371 -320 797 l-315 775 -196 3 -195 2 -10 -26z m304 -709 l83 -220 -88 -3
c-48 -1 -130 -1 -182 0 l-94 3 90 239 c68 178 93 234 99 220 4 -10 46 -118 92
-239z"/>
<path d="M4765 1074 c-131 -28 -212 -69 -290 -148 -101 -101 -145 -215 -145
-376 0 -165 47 -286 149 -384 210 -199 570 -193 779 15 l62 61 0 174 0 174
-265 0 -265 0 0 -95 0 -95 155 0 155 0 0 -33 c0 -107 -231 -172 -370 -105 -91
44 -128 88 -155 183 -36 123 -2 269 82 346 72 66 156 90 248 69 71 -16 120
-52 155 -114 l30 -53 108 32 c121 36 119 32 76 123 -53 110 -160 187 -299 217
-66 14 -165 18 -210 9z"/>
<path d="M1600 550 l0 -510 360 0 360 0 0 105 0 105 -245 0 -245 0 0 405 0
405 -115 0 -115 0 0 -510z"/>
<path d="M2430 550 l0 -510 355 0 355 0 0 105 0 105 -240 0 -240 0 0 100 0
100 218 2 217 3 0 100 0 100 -217 3 -218 2 0 95 0 95 235 0 235 0 0 105 0 105
-350 0 -350 0 0 -510z"/>
<path d="M3593 883 c-40 -98 -132 -328 -207 -510 l-135 -333 133 0 133 0 35
93 35 92 202 0 203 0 35 -92 36 -93 133 0 133 0 -145 357 c-80 197 -173 427
-207 511 l-61 152 -126 0 -126 0 -71 -177z m258 -288 c31 -80 54 -147 51 -150
-7 -7 -217 -7 -224 0 -6 7 103 295 112 295 3 0 31 -65 61 -145z"/>
<path d="M5432 688 l3 -373 32 -67 c59 -125 164 -197 321 -220 191 -28 382 54
454 196 44 86 48 123 48 489 l0 347 -114 0 -115 0 -3 -342 -3 -343 -25 -45
c-42 -75 -119 -110 -210 -95 -55 9 -100 43 -130 95 l-25 45 -3 343 -3 342
-115 0 -115 0 3 -372z"/>
<path d="M6420 550 l0 -510 360 0 360 0 0 105 0 105 -240 0 -240 0 0 100 0
100 215 0 215 0 0 105 0 105 -215 0 -215 0 0 95 0 95 235 0 235 0 0 105 0 105
-355 0 -355 0 0 -510z"/>
</g>
</svg>
