<?xml version="1.0" standalone="no"?>
<!DOCTYPE svg PUBLIC "-//W3C//DTD SVG 20010904//EN"
 "http://www.w3.org/TR/2001/REC-SVG-20010904/DTD/svg10.dtd">
<svg version="1.0" xmlns="http://www.w3.org/2000/svg"
 width="1157.000000pt" height="765.000000pt" viewBox="0 0 1157.000000 765.000000"
 preserveAspectRatio="xMidYMid meet">
<metadata>
Created by potrace 1.16, written by Peter Selinger 2001-2019
</metadata>
<g transform="translate(0.000000,765.000000) scale(0.100000,-0.100000)"
fill="#000000" stroke="none">
<path d="M1339 6331 c-8 -10 -41 -52 -74 -92 -124 -152 -260 -352 -369 -539
-166 -287 -328 -702 -402 -1030 -101 -452 -109 -1076 -19 -1625 31 -186 37
-211 91 -412 143 -527 370 -948 680 -1261 l111 -112 134 0 c74 0 395 7 714 15
319 8 679 17 800 20 494 12 1440 27 2085 34 l685 6 3 2471 2 2471 -692 7
c-811 8 -1454 18 -2738 46 -514 11 -949 20 -966 20 -19 0 -37 -7 -45 -19z
m1889 -366 c7 -14 20 -25 31 -25 29 0 32 -13 14 -58 -19 -49 -13 -77 27 -127
45 -57 38 -125 -12 -125 -30 0 -42 -41 -32 -107 l9 -58 55 -6 c87 -9 140 -43
140 -90 0 -30 -36 -65 -77 -75 -16 -4 -23 -13 -23 -31 0 -64 41 -88 166 -96
50 -4 98 -9 106 -12 15 -6 48 -66 48 -89 0 -28 58 -92 101 -111 24 -10 46 -20
48 -21 2 -2 -17 -41 -43 -87 -92 -169 -138 -331 -139 -492 -2 -142 20 -219 99
-351 59 -101 84 -169 84 -232 0 -88 -65 -188 -163 -250 -90 -57 -218 -128
-247 -137 -14 -4 -63 -26 -110 -48 -47 -22 -96 -45 -110 -51 -68 -30 -208
-115 -247 -150 -80 -70 -104 -160 -64 -239 10 -20 15 -37 10 -37 -31 0 -143
138 -171 209 -21 55 -28 136 -17 196 11 66 69 172 119 220 17 16 30 32 30 37
0 4 -30 8 -67 8 -62 1 -66 2 -49 15 14 10 45 15 100 15 71 0 85 3 111 25 l30
24 -72 1 c-40 0 -73 3 -73 6 0 23 42 33 133 34 82 0 105 4 140 23 l42 22 -90
5 c-81 5 -87 6 -62 18 16 7 68 12 119 12 79 0 96 3 125 23 18 12 33 25 33 30
0 4 -28 7 -62 8 l-63 1 40 19 c22 10 60 19 85 19 43 0 70 13 70 32 0 4 -9 8
-20 8 -11 0 -20 4 -20 10 0 12 34 30 58 30 15 0 22 11 31 46 7 26 10 49 7 51
-2 3 -32 -18 -65 -45 -33 -28 -82 -62 -108 -75 -26 -13 -97 -50 -158 -82 -60
-32 -128 -67 -150 -78 -82 -41 -342 -192 -400 -232 -228 -161 -272 -339 -118
-475 26 -23 75 -60 107 -82 60 -42 317 -168 486 -240 254 -108 436 -215 546
-320 91 -88 124 -149 124 -232 0 -135 -113 -315 -325 -518 -76 -73 -104 -87
-70 -35 19 30 45 146 45 207 0 70 -27 158 -72 235 -44 76 -219 258 -322 336
-33 24 -91 68 -130 97 -355 263 -484 392 -526 528 -33 109 -22 221 32 329 28
55 163 183 236 225 44 25 60 39 55 50 -29 72 -35 100 -30 151 6 69 45 160 110
257 88 131 119 263 97 414 -15 108 -70 277 -131 405 -27 56 -49 104 -49 106 0
3 11 8 24 11 44 11 87 58 121 131 18 40 40 75 50 78 9 4 56 10 103 13 103 8
126 15 145 46 31 48 31 67 0 80 -100 43 -97 126 6 156 21 7 54 12 73 12 32 0
36 3 42 31 8 40 8 103 0 123 -3 9 -13 16 -22 16 -23 0 -52 30 -52 55 0 12 14
39 30 60 36 45 45 74 36 118 -13 65 -12 72 11 75 15 2 25 13 29 28 8 31 28 31
42 -1z m-823 -924 c47 -23 103 -67 94 -75 -3 -3 -27 1 -53 10 -30 10 -65 14
-93 11 -120 -13 -213 -178 -200 -357 5 -78 40 -215 57 -225 12 -8 13 -13 -5
70 -15 72 -21 265 -7 265 4 0 19 -35 34 -78 14 -42 49 -139 78 -216 28 -76 57
-170 65 -208 19 -90 19 -226 0 -292 -20 -70 -94 -182 -235 -358 -64 -78 -128
-162 -143 -186 -48 -73 -126 -252 -160 -362 -31 -101 -32 -111 -31 -275 0
-141 4 -185 22 -259 12 -49 21 -91 19 -93 -8 -8 -61 72 -103 155 -25 51 -52
125 -65 180 -12 50 -25 92 -28 92 -18 0 -138 -160 -154 -203 -2 -6 -7 -9 -11
-6 -9 9 11 208 31 294 18 81 90 265 135 345 53 94 162 240 270 361 134 152
155 179 223 282 75 116 142 267 118 267 -5 0 -54 -50 -111 -110 -57 -61 -107
-110 -112 -110 -5 0 5 39 21 88 40 113 46 217 29 464 -23 334 9 472 125 532
42 22 140 20 190 -3z m1783 5 c36 -19 85 -72 108 -116 20 -40 34 -260 16 -260
-5 0 -13 12 -17 28 -3 15 -23 63 -44 107 -74 157 -169 211 -293 168 -32 -11
-58 -17 -58 -12 0 12 74 67 112 84 43 18 141 19 176 1z m-1784 -140 c69 -29
103 -116 52 -135 -31 -13 -40 -39 -21 -67 18 -28 41 -30 73 -8 33 23 30 -8 -4
-35 -56 -44 -143 -15 -173 57 -11 27 -10 32 18 60 36 36 37 45 11 95 -11 20
-20 39 -20 42 0 9 30 5 64 -9z m1656 2 c0 -6 -6 -19 -14 -27 -8 -9 -18 -28
-21 -43 -6 -22 -1 -33 25 -59 29 -29 30 -34 19 -61 -18 -43 -65 -78 -105 -78
-46 0 -70 14 -89 50 -18 35 -13 38 15 10 11 -11 27 -20 36 -20 60 0 77 81 19
91 -30 6 -32 58 -4 93 33 42 119 74 119 44z m190 -212 c28 -110 25 -180 -11
-321 -61 -237 -47 -520 36 -719 25 -60 40 -32 22 40 -23 92 -28 172 -17 263
16 121 23 127 50 40 30 -102 77 -190 152 -288 34 -47 72 -96 83 -110 10 -14
38 -47 61 -74 49 -54 172 -233 202 -292 38 -76 82 -218 96 -309 19 -120 30
-286 19 -285 -4 0 -33 34 -63 76 -59 80 -106 126 -123 120 -6 -2 -17 -30 -23
-63 -28 -136 -113 -318 -171 -365 -15 -12 -16 -12 -9 6 26 68 48 185 52 285
11 220 -41 376 -198 586 -212 285 -231 317 -291 494 -40 119 -67 255 -67 346
0 93 24 201 85 383 30 90 60 190 67 223 7 32 16 54 20 50 4 -4 17 -43 28 -86z
m-540 -1344 c0 -10 -10 -45 -22 -77 -15 -43 -22 -84 -22 -143 l-1 -83 -75 -23
c-234 -75 -405 -154 -437 -203 -19 -29 -21 -87 -3 -109 22 -26 3 -26 -28 1
-64 54 -92 131 -73 201 6 21 33 67 61 102 l51 62 -38 0 c-21 0 -48 3 -61 6
-21 6 -21 7 -5 20 11 8 46 14 93 14 65 0 79 4 105 25 l30 24 -60 1 c-57 1 -59
1 -35 15 15 8 53 14 92 15 43 0 81 6 104 18 l37 17 -54 5 -54 5 32 18 c21 11
54 17 95 17 41 0 77 7 103 19 l40 19 -32 1 c-17 1 -34 5 -37 10 -9 13 84 40
142 40 43 1 52 -2 52 -17z"/>
<path d="M10090 6343 c-91 -1 -527 -9 -970 -18 -1531 -29 -1858 -35 -2557 -41
l-703 -7 2 -2471 3 -2471 350 -2 c568 -4 2237 -32 3110 -53 446 -11 865 -20
933 -20 l122 0 103 158 c57 86 125 195 151 242 27 47 65 114 86 150 70 123
197 394 247 530 199 540 283 972 283 1465 0 607 -135 1197 -402 1756 -46 96
-103 208 -127 249 -24 41 -61 104 -82 140 -57 96 -165 252 -242 347 -41 52
-43 53 -92 51 -27 -1 -124 -4 -215 -5z m-1962 -1315 c-2 -25 -8 -44 -15 -44
-7 -1 -33 -2 -58 -3 l-45 -1 0 -165 0 -165 -60 0 -60 0 -2 168 -3 167 -57 3
-58 3 0 39 0 40 181 0 180 0 -3 -42z m172 -38 l0 -80 60 0 60 0 0 80 0 80 60
0 60 0 0 -210 0 -210 -60 0 -60 0 0 80 0 80 -60 0 -60 0 0 -80 0 -80 -60 0
-60 0 0 210 0 210 60 0 60 0 0 -80z m600 40 l0 -39 -82 -3 -83 -3 0 -40 0 -40
68 -3 67 -3 0 -39 0 -39 -67 -3 -68 -3 0 -40 0 -40 88 -3 87 -3 0 -39 0 -40
-150 0 -150 0 0 210 0 210 145 0 145 0 0 -40z m-755 -560 c11 -12 19 -36 19
-55 0 -46 -28 -75 -72 -75 -72 0 -108 76 -60 127 28 30 87 32 113 3z m-1299
-47 c44 -24 94 -76 94 -98 0 -11 -10 -10 -47 7 -39 17 -74 22 -193 26 l-146 4
4 -78 c2 -44 5 -85 7 -91 3 -9 26 -13 67 -13 73 0 134 -24 166 -65 22 -28 29
-51 13 -40 -24 14 -120 24 -183 18 l-70 -6 3 -159 c5 -201 2 -198 153 -198
117 1 177 12 219 42 l30 22 -6 -45 c-4 -32 -14 -51 -37 -71 l-30 -28 -240 0
-239 0 -16 30 c-12 24 -15 78 -15 313 0 298 -7 374 -40 419 -11 15 -20 30 -20
33 0 4 109 5 243 3 227 -3 245 -4 283 -25z m2654 -133 l70 0 0 -51 c0 -45 -2
-50 -17 -44 -10 4 -42 10 -70 13 l-53 4 0 -236 c0 -244 2 -259 43 -303 l20
-23 -89 0 c-49 0 -94 4 -101 8 -27 17 -33 70 -33 308 l0 244 -38 0 c-21 0 -42
3 -45 6 -4 4 20 23 52 42 33 19 88 63 123 99 l63 64 3 -66 3 -65 69 0z m-2378
-11 c25 -11 68 -67 68 -89 0 -7 10 2 23 21 57 84 153 104 239 50 26 -17 54
-42 64 -56 l17 -26 15 32 c9 17 33 42 54 56 75 50 210 13 255 -69 15 -28 18
-69 23 -260 5 -217 6 -228 28 -258 l23 -31 -93 3 c-122 4 -118 -5 -118 250 0
108 -4 208 -10 222 -11 29 -57 56 -95 56 -14 0 -37 -11 -51 -25 l-25 -25 3
-208 c3 -198 4 -208 26 -239 l23 -33 -89 0 c-71 0 -92 3 -103 17 -11 12 -15
71 -19 240 l-5 225 -29 25 c-25 21 -37 24 -70 20 -73 -10 -76 -21 -76 -246 0
-189 1 -197 25 -238 l24 -43 -89 0 c-82 0 -90 2 -102 23 -9 16 -14 98 -18 289
-5 259 -6 267 -27 290 -13 14 -23 27 -23 31 0 11 107 8 132 -4z m982 1 c53
-20 60 -54 64 -300 1 -124 5 -235 7 -247 3 -12 17 -35 31 -52 l26 -31 -90 0
c-133 0 -126 -16 -132 304 -5 252 -6 262 -28 299 l-24 37 61 0 c33 0 71 -4 85
-10z m327 -19 c16 -16 29 -39 29 -50 0 -29 12 -26 32 8 22 40 64 66 109 66 56
0 79 -26 79 -91 l0 -53 -45 20 c-38 17 -51 18 -84 9 -75 -20 -81 -38 -81 -241
0 -183 6 -217 42 -256 l21 -23 -90 0 c-134 0 -127 -17 -133 309 -5 258 -6 267
-28 299 l-23 32 71 0 c66 0 74 -2 101 -29z m574 5 c28 -13 63 -38 78 -55 l27
-33 0 -209 c0 -217 6 -256 47 -301 15 -17 12 -18 -75 -18 l-91 0 -17 31 -16
31 -21 -20 c-37 -33 -63 -42 -123 -42 -92 0 -142 41 -158 132 -18 100 44 178
195 246 99 45 119 64 119 115 0 13 -7 33 -16 45 -12 18 -25 22 -71 22 -49 0
-59 -4 -89 -34 -18 -18 -36 -31 -39 -28 -3 3 -5 22 -5 42 0 44 21 66 82 85 64
20 117 18 173 -9z m955 -9 c63 -37 86 -82 74 -146 -10 -50 -89 -131 -172 -174
-103 -55 -106 -58 -98 -101 21 -111 157 -154 235 -74 l31 32 0 -52 c0 -48 -2
-53 -32 -69 -50 -25 -187 -30 -245 -8 -57 22 -117 75 -146 129 -19 36 -22 57
-22 166 0 142 14 189 77 252 86 86 201 103 298 45z m448 8 c52 -24 52 -24 52
-70 0 -50 -10 -57 -33 -21 -34 52 -142 58 -173 11 -14 -22 -14 -27 3 -55 10
-18 46 -48 83 -70 112 -66 150 -119 150 -207 0 -88 -50 -153 -147 -192 -43
-18 -157 -10 -205 13 -36 17 -38 21 -38 67 0 27 3 49 7 49 3 0 19 -15 34 -32
25 -31 31 -33 87 -33 50 0 65 4 86 24 30 28 43 80 26 110 -6 12 -49 47 -96 78
-95 62 -131 106 -140 174 -9 68 13 111 78 148 70 40 148 42 226 6z m-1834
-949 c51 -30 92 -83 102 -133 6 -30 5 -31 -45 -42 -127 -27 -126 -27 -147 15
-24 48 -45 61 -80 49 -56 -20 -69 -55 -69 -179 0 -125 9 -150 68 -187 42 -26
119 -21 202 14 l60 25 3 -26 c2 -14 1 -45 -3 -69 -5 -37 -12 -46 -43 -62 -86
-44 -243 -52 -326 -17 -42 17 -99 75 -126 127 -39 74 -47 224 -19 323 16 54
79 136 123 158 65 33 86 38 172 35 67 -3 89 -8 128 -31z m-1184 -51 l0 -65
-125 0 -125 0 0 -65 0 -65 105 0 105 0 0 -60 0 -59 -102 -3 -103 -3 -3 -127
-3 -128 -89 0 -90 0 0 313 c0 173 3 317 7 320 3 4 100 7 215 7 l208 0 0 -65z
m417 -55 c24 -63 73 -200 110 -305 36 -104 68 -196 71 -202 3 -10 -19 -13 -90
-13 l-94 0 -18 55 -17 55 -105 0 c-75 0 -106 -4 -108 -12 -2 -7 -9 -32 -15
-55 l-12 -43 -85 0 -86 0 7 33 c4 17 38 129 76 248 38 118 69 219 69 222 0 4
-11 7 -24 7 -27 0 -36 16 -36 65 0 67 -3 66 163 63 l152 -3 42 -115z m1105
-110 c5 -199 8 -233 22 -249 41 -45 127 -33 145 21 7 18 11 117 11 244 l0 214
85 0 85 0 0 -232 c0 -139 -5 -249 -11 -273 -24 -87 -124 -145 -250 -145 -128
0 -200 33 -239 111 -18 35 -20 60 -20 289 l0 250 84 0 83 0 5 -230z m813 219
c85 -16 130 -42 160 -92 49 -84 42 -200 -16 -270 -46 -55 -106 -79 -215 -85
l-94 -5 0 -88 0 -89 -90 0 -90 0 0 255 0 255 -30 0 -30 0 0 65 0 65 173 0 c95
0 200 -5 232 -11z"/>
<path d="M8892 3974 c-60 -40 -92 -94 -94 -158 -1 -75 34 -108 100 -91 57 14
62 27 62 156 0 65 -4 120 -8 123 -5 3 -32 -11 -60 -30z"/>
<path d="M9786 4208 c-8 -13 -19 -41 -24 -63 -13 -54 -24 -174 -17 -185 9 -15
88 43 118 88 37 52 47 134 22 162 -26 28 -80 27 -99 -2z"/>
<path d="M9560 3100 l0 -100 44 0 c55 0 104 17 116 40 11 21 13 90 4 115 -10
25 -59 45 -114 45 l-50 0 0 -100z"/>
</g>
</svg>
