<?xml version="1.0" standalone="no"?>
<!DOCTYPE svg PUBLIC "-//W3C//DTD SVG 20010904//EN"
 "http://www.w3.org/TR/2001/REC-SVG-20010904/DTD/svg10.dtd">
<svg version="1.0" xmlns="http://www.w3.org/2000/svg"
 width="1200.000000pt" height="1714.000000pt" viewBox="0 0 1200.000000 1714.000000"
 preserveAspectRatio="xMidYMid meet">
<metadata>
Created by potrace 1.16, written by Peter Selinger 2001-2019
</metadata>
<g transform="translate(0.000000,1714.000000) scale(0.100000,-0.100000)"
fill="#000000" stroke="none">
<path d="M340 11408 c0 -3558 4 -5459 10 -5588 69 -1301 533 -2479 1368 -3470
136 -161 491 -516 652 -652 623 -525 1324 -902 2088 -1122 692 -200 1447 -262
2172 -180 667 76 1371 293 1963 608 1299 689 2283 1855 2752 3261 136 407 215
777 277 1300 9 76 12 1459 15 5668 l3 5567 -5650 0 -5650 0 0 -5392z m7550
3956 c28 -463 50 -858 50 -880 l0 -38 35 34 c25 24 33 39 29 54 -5 14 -3 18 9
13 11 -4 135 116 428 416 514 526 642 654 596 597 -20 -25 -258 -306 -530
-625 -406 -477 -490 -581 -473 -583 14 -3 32 9 60 43 l39 46 46 -45 46 -45
853 -7 c468 -4 850 -9 848 -11 -3 -3 -627 -44 -1431 -93 -181 -11 -354 -23
-384 -26 l-54 -6 45 -46 c69 -73 129 -147 218 -272 107 -150 280 -350 303
-350 15 0 11 12 -25 78 -93 172 -220 361 -329 491 l-58 68 52 7 c103 12 96 16
184 -101 91 -121 193 -279 244 -378 l34 -65 151 0 c333 0 750 69 1024 170 275
101 510 275 590 435 30 62 35 81 38 165 4 90 2 100 -27 164 -65 144 -226 258
-485 345 -63 21 -232 67 -375 102 -144 35 -261 66 -261 69 0 12 483 221 566
245 215 62 455 70 649 21 485 -125 806 -586 755 -1084 -39 -373 -213 -680
-539 -953 -409 -343 -964 -556 -1644 -633 -64 -7 -120 -15 -123 -19 -3 -3 -1
-45 5 -94 51 -437 -7 -942 -157 -1359 -171 -474 -434 -872 -807 -1225 -146
-137 -149 -138 -298 -170 -73 -16 -136 -29 -141 -29 -5 0 17 19 50 42 203 144
443 369 594 558 192 241 376 567 476 845 61 170 116 393 145 585 21 138 24
185 22 435 -1 215 -6 307 -20 395 l-18 115 -50 -3 c-27 -2 -51 -4 -52 -5 -1
-1 5 -43 13 -92 24 -145 30 -542 10 -709 -61 -530 -252 -1002 -572 -1416 -41
-52 -94 -117 -120 -145 l-46 -50 32 45 c244 342 412 715 494 1100 79 371 81
799 6 1165 -11 53 -20 99 -20 102 0 10 -547 -5 -632 -17 l-88 -13 0 -102 c0
-110 -12 -437 -15 -433 -2 2 -8 116 -15 253 -6 138 -13 255 -15 262 -5 14
-114 -9 -300 -63 l-130 -38 -193 -1 -192 0 -11 -38 c-10 -36 -8 -41 25 -77 50
-56 70 -132 62 -235 -7 -86 -35 -225 -61 -302 -12 -35 -15 -64 -10 -106 l7
-59 -30 16 c-17 9 -32 16 -34 16 -2 0 -4 -46 -4 -103 -2 -171 -39 -284 -114
-355 -38 -35 -40 -40 -40 -95 0 -74 -20 -120 -63 -149 -31 -19 -36 -29 -41
-76 -9 -74 -25 -101 -89 -147 -45 -33 -57 -47 -61 -75 -3 -19 -13 -207 -22
-418 l-18 -384 -65 -34 c-109 -56 -104 -48 -99 -167 l5 -104 -101 -6 c-111 -7
-259 -41 -348 -80 l-56 -25 -7 61 c-18 162 -104 255 -267 291 -15 3 -29 14
-32 24 -19 61 -29 203 -31 447 -1 154 -5 298 -10 320 -18 88 -67 148 -134 161
-16 4 -32 12 -35 19 -2 7 -10 84 -16 171 -7 88 -17 165 -23 173 -7 7 -32 22
-57 33 -25 11 -53 27 -64 36 -49 45 -79 156 -91 343 -7 110 -8 113 -77 210 -9
13 -32 93 -52 176 -19 84 -44 173 -55 197 -21 50 -19 56 19 56 50 0 119 31
151 67 30 35 31 38 27 119 -1 45 -5 84 -8 87 -3 3 -77 12 -165 20 -124 12
-198 25 -330 61 -266 71 -269 71 -913 71 -565 0 -573 0 -577 -20 -14 -64 -27
-193 -34 -329 -49 -925 324 -1795 1030 -2400 353 -303 774 -516 1235 -626 47
-11 95 -20 107 -20 51 0 -8 -19 -135 -44 l-136 -27 -119 40 c-310 104 -613
261 -862 446 -671 499 -1096 1209 -1222 2040 -27 174 -36 508 -19 695 7 78 9
144 6 147 -3 3 -72 14 -153 24 -447 55 -918 195 -1230 365 -285 155 -540 368
-696 581 -140 192 -237 487 -237 723 0 492 352 910 839 995 179 32 443 11 616
-48 109 -38 609 -229 618 -236 4 -4 -118 -29 -270 -55 -290 -49 -465 -95 -606
-160 -279 -127 -410 -312 -368 -518 17 -82 62 -165 123 -227 278 -285 798
-452 1453 -468 l220 -5 50 93 c211 392 541 763 913 1028 625 445 1391 639
2153 545 128 -15 294 -46 378 -70 29 -8 55 -14 56 -12 2 2 -89 100 -203 218
-114 117 -200 209 -192 204 9 -5 325 -267 703 -583 378 -315 689 -572 691
-570 3 2 2 25 -1 51 -5 45 -8 49 -82 101 -42 31 -128 88 -191 127 -101 64
-319 231 -435 334 l-40 35 95 -38 c200 -81 393 -184 559 -297 51 -35 94 -64
96 -64 1 0 5 273 9 608 6 557 17 981 23 907 2 -16 26 -408 53 -871z m3090
-5662 l0 -688 -643 -132 c-354 -73 -651 -132 -660 -132 -16 0 -17 47 -17 685
l0 684 35 7 c40 7 1279 262 1283 263 1 1 2 -309 2 -687z m-1473 -988 c-1 -2
-295 -63 -652 -137 l-650 -133 -3 439 c-1 242 -1 442 2 444 2 2 204 45 450 95
l446 92 0 57 0 57 -42 -10 c-24 -5 -226 -47 -450 -92 l-408 -83 0 188 0 188
58 12 c31 6 325 67 652 134 l595 121 3 -684 c1 -377 1 -686 -1 -688z m-2365
1128 l3 -238 425 87 c234 48 437 90 453 93 l27 6 0 -690 c0 -380 -2 -690 -5
-690 -3 0 -287 -58 -633 -130 -346 -71 -634 -130 -640 -130 -9 0 -12 223 -12
928 l0 927 173 37 c94 20 180 36 189 37 16 1 18 -19 20 -237z m-532 -1040 l0
-688 -642 -133 c-354 -73 -651 -134 -660 -137 -17 -5 -18 21 -18 440 0 245 1
446 3 446 1 1 205 42 452 94 l450 92 3 58 c3 57 2 58 -20 53 -13 -3 -212 -45
-443 -92 -231 -47 -426 -88 -433 -90 -10 -4 -12 35 -10 187 l3 191 640 133
c352 73 648 133 658 133 16 1 17 -38 17 -687z m-1470 198 c0 -104 -2 -190 -5
-190 -2 0 -124 -25 -271 -55 -147 -30 -269 -55 -271 -55 -1 0 -4 -226 -5 -502
l-3 -503 -150 -32 c-82 -18 -167 -35 -187 -38 l-38 -7 0 690 0 691 58 12 c31
6 235 49 452 94 217 46 401 83 408 84 9 1 12 -43 12 -189z m-2562 -57 l-3
-197 -585 -122 -585 -121 -3 -536 c-1 -378 1 -537 9 -537 5 0 269 54 585 120
316 66 579 120 585 120 5 0 9 -80 9 -194 0 -177 -2 -195 -17 -200 -25 -8
-1552 -326 -1564 -326 -13 0 -12 1857 1 1865 12 7 1525 323 1553 324 16 1 17
-13 15 -196z m1482 -669 c0 -538 -3 -686 -12 -689 -7 -3 -294 -64 -638 -135
-344 -71 -635 -132 -648 -135 l-22 -5 2 447 3 446 423 88 c232 48 434 90 447
93 23 6 25 11 25 61 0 30 -2 55 -5 55 -5 0 -468 -96 -704 -145 -90 -19 -170
-35 -177 -35 -11 0 -14 35 -14 188 l0 187 653 136 c358 74 655 134 660 132 4
-3 7 -312 7 -689z m4155 -2112 c-2 -2 -197 -44 -432 -93 -235 -49 -438 -91
-450 -94 l-23 -5 0 -239 0 -239 -23 -6 c-12 -3 -90 -19 -172 -36 -83 -17 -158
-33 -167 -36 -17 -5 -18 44 -18 925 0 512 1 931 3 931 1 1 290 61 642 134
l640 132 3 -684 c1 -377 0 -687 -3 -690z m-2907 1061 l-3 -198 -585 -122
c-322 -67 -586 -122 -587 -122 -2 -1 -3 -242 -3 -536 0 -427 3 -535 13 -535 7
0 271 54 587 120 315 66 577 120 582 120 4 0 8 -88 8 -195 l0 -194 -37 -10
c-55 -14 -1528 -321 -1542 -321 -8 0 -11 244 -11 933 l0 933 773 161 c424 89
780 162 790 162 16 1 17 -13 15 -196z m1482 -678 c0 -539 -3 -687 -12 -690
-19 -7 -1280 -265 -1295 -265 -11 0 -13 130 -13 685 0 377 1 685 3 685 1 0 86
18 190 39 l187 39 0 -499 0 -499 23 5 c42 10 514 105 521 105 3 0 6 225 6 499
l0 500 58 11 c31 7 116 25 187 40 72 16 133 29 138 29 4 1 7 -307 7 -684z
m4284 -945 c-5 -4 -2173 -427 -4819 -940 -2646 -512 -4821 -934 -4834 -937
l-24 -6 5 102 c3 56 8 104 11 108 4 3 2159 423 4789 934 2631 510 4801 931
4823 936 l40 8 9 -98 c4 -56 4 -102 0 -107z m-6396 -1926 c12 -14 22 -37 22
-52 0 -26 1 -26 18 8 36 73 140 76 183 6 64 -106 -70 -213 -162 -130 -10 9
-23 32 -29 50 l-12 34 -30 -25 c-16 -14 -36 -25 -44 -25 -24 0 -71 28 -78 45
-36 94 66 162 132 89z m416 -78 c49 -20 76 -60 76 -113 0 -38 -5 -50 -34 -79
-30 -30 -40 -34 -86 -34 -46 0 -56 4 -86 34 -28 28 -34 41 -34 78 0 92 81 149
164 114z m-614 -71 c33 -35 31 -81 -4 -112 -15 -12 -37 -23 -49 -23 -20 0 -19
-2 9 -19 37 -23 59 -70 49 -108 l-7 -28 27 25 c22 21 36 25 86 25 52 0 62 -3
90 -31 79 -80 27 -207 -85 -207 -79 0 -132 60 -124 142 l3 39 -28 -24 c-74
-62 -190 6 -173 102 8 42 57 84 99 85 29 0 30 1 11 11 -47 22 -56 86 -19 123
33 34 83 34 115 0z m197 -17 c11 -6 29 -25 39 -44 25 -46 11 -100 -35 -131
-40 -27 -61 -29 -106 -7 -66 31 -81 116 -29 168 37 36 77 40 131 14z m672 -83
c88 -75 48 -207 -67 -222 -28 -4 -46 1 -71 19 -79 53 -90 131 -26 195 29 29
40 33 83 33 39 0 57 -6 81 -25z m-440 -23 c76 -41 91 -137 32 -196 -28 -27
-38 -31 -87 -31 -51 0 -58 3 -90 37 -32 36 -39 57 -34 103 4 37 29 72 62 88
43 22 76 21 117 -1z m-692 -14 c46 -43 13 -138 -47 -138 -74 0 -114 77 -69
134 27 34 82 36 116 4z m904 -148 c28 0 96 -66 109 -106 30 -91 -48 -194 -147
-194 -43 0 -110 38 -134 76 -39 64 -22 162 36 200 29 19 84 34 103 28 8 -2 22
-4 33 -4z m416 -20 c45 -27 66 -64 66 -115 0 -103 -104 -164 -200 -119 -89 43
-103 157 -27 223 28 25 43 31 82 31 29 0 59 -8 79 -20z m-1451 -66 c96 -46
117 -175 43 -259 -96 -109 -269 -38 -269 109 0 25 4 55 9 68 11 28 59 77 86
89 33 13 95 10 131 -7z m-351 -28 c97 -41 100 -202 6 -251 -50 -25 -105 -20
-145 15 -78 69 -70 178 17 230 38 24 75 25 122 6z m3055 -146 l0 -140 -225 0
-225 0 0 -85 0 -85 210 0 210 0 0 -140 0 -140 -210 0 -210 0 0 -95 0 -95 223
-2 222 -3 0 -130 0 -130 -286 -3 c-282 -2 -286 -2 -330 21 -34 18 -51 36 -74
82 l-30 59 -3 513 -3 513 366 0 365 0 0 -140z m940 10 l0 -130 -215 0 -215 0
0 -100 0 -100 190 0 190 0 0 -130 0 -130 -190 0 -190 0 0 -235 0 -235 -77 0
c-107 0 -154 23 -187 93 l-24 52 -7 523 -7 522 366 0 366 0 0 -130z m480 -330
l0 -460 185 0 185 0 0 -130 0 -131 -274 3 c-310 3 -310 4 -351 84 -19 37 -20
62 -23 567 l-3 527 141 0 140 0 0 -460z m-3332 410 c45 -28 72 -76 72 -130 0
-62 -29 -106 -87 -132 -75 -33 -140 -12 -191 63 -20 28 -23 43 -19 88 3 48 9
59 45 93 37 34 47 38 94 38 35 0 64 -7 86 -20z m-489 -84 c97 -51 128 -168 68
-256 -38 -57 -72 -75 -136 -75 -48 0 -64 5 -95 29 -43 32 -75 94 -76 143 -1
120 137 212 239 159z m1004 -39 c94 -72 80 -219 -26 -267 -56 -26 -95 -25
-147 3 -50 26 -90 90 -90 144 0 50 34 110 78 133 53 29 138 23 185 -13z
m-1768 -101 c45 -19 75 -69 75 -124 0 -37 -6 -50 -33 -77 -43 -43 -79 -52
-130 -34 -77 27 -109 114 -65 179 22 33 78 70 106 70 7 0 28 -6 47 -14z m335
-18 c130 -89 63 -299 -91 -285 -191 16 -180 307 11 307 32 0 57 -7 80 -22z
m1106 -34 c74 -35 114 -119 93 -196 -29 -110 -165 -159 -261 -94 -51 35 -71
70 -76 133 -3 49 0 64 20 93 52 76 143 102 224 64z m-835 -146 c42 -24 79 -85
79 -131 0 -42 -24 -90 -58 -119 -102 -85 -253 -1 -240 134 6 57 29 93 78 119
46 25 94 24 141 -3z m1339 -53 c67 -71 -27 -176 -107 -120 -41 29 -38 98 6
132 27 21 75 15 101 -12z m-1976 -29 c69 -29 96 -107 61 -176 -35 -68 -135
-79 -187 -21 -56 63 -41 157 32 193 42 22 51 22 94 4z m285 -64 c37 -19 71
-72 71 -112 0 -39 -33 -91 -71 -112 -62 -34 -138 -6 -166 60 -27 65 0 141 60
167 43 19 66 18 106 -3z m1557 -56 c40 -40 44 -75 14 -124 -24 -38 -62 -56
-108 -48 -42 6 -61 22 -79 64 -28 68 23 142 99 142 32 0 47 -7 74 -34z m-213
-88 c26 -13 57 -68 57 -101 0 -71 -58 -127 -132 -127 -43 0 -54 4 -84 34 -28
28 -34 42 -34 75 0 108 99 169 193 119z m-1119 -2 c81 -34 104 -134 45 -200
-73 -84 -196 -41 -206 71 -5 59 21 107 70 128 41 18 50 18 91 1z m491 -36 c69
-42 94 -143 55 -220 -62 -121 -245 -127 -305 -10 -19 37 -19 123 -1 158 47 91
165 125 251 72z m318 6 c18 -7 45 -27 59 -44 81 -97 9 -242 -120 -242 -130 0
-198 142 -115 241 47 55 112 72 176 45z m618 -6 c20 0 49 -42 49 -71 0 -42
-14 -64 -50 -79 -54 -22 -110 15 -110 72 0 45 53 94 88 82 8 -2 18 -4 23 -4z
m-1901 -15 c40 -21 60 -53 60 -98 0 -54 -52 -107 -105 -107 -29 0 -45 8 -71
34 -52 52 -44 128 18 166 39 24 60 25 98 5z m240 -80 c40 -21 60 -53 60 -98 0
-31 -7 -46 -35 -74 -32 -32 -39 -35 -78 -30 -103 14 -133 143 -45 197 39 24
60 25 98 5z m1563 -55 c52 -58 28 -145 -47 -170 -45 -15 -81 -4 -111 32 -46
55 -28 134 39 164 43 19 86 10 119 -26z m-1729 -91 c19 -15 26 -29 26 -57 0
-76 -83 -110 -137 -56 -21 21 -24 32 -19 62 10 67 76 93 130 51z m433 -22 c56
-55 31 -156 -43 -176 -91 -25 -163 64 -123 152 27 59 118 73 166 24z m1064 10
c66 -44 70 -133 8 -193 -26 -25 -38 -29 -84 -29 -43 0 -59 5 -79 24 -56 52
-55 130 2 183 48 45 101 50 153 15z m377 -3 c32 -22 43 -57 31 -94 -13 -36
-36 -50 -83 -50 -25 0 -40 7 -55 26 -29 37 -26 70 8 105 33 32 65 37 99 13z
m-662 -60 c99 -47 101 -196 4 -261 -43 -30 -121 -31 -167 -3 -99 60 -82 225
27 269 38 15 98 13 136 -5z m-1013 -6 c70 -37 58 -135 -17 -154 -26 -6 -64 10
-83 35 -11 14 -12 12 -13 -11 0 -53 -57 -82 -99 -51 -38 29 -40 74 -5 102 33
26 58 27 84 1 l20 -20 0 28 c1 30 15 53 45 70 26 15 41 15 68 0z m682 -37
c131 -74 80 -277 -75 -298 -51 -7 -122 27 -150 71 -39 64 -19 174 39 215 57
41 126 45 186 12z m872 -21 c89 -54 43 -190 -63 -190 -104 0 -142 129 -55 187
42 28 76 29 118 3z m-1269 -106 c67 -75 -42 -181 -113 -109 -28 27 -34 80 -12
107 35 44 86 45 125 2z m1079 -39 c38 -25 57 -81 44 -126 -17 -56 -62 -89
-120 -89 -53 0 -84 18 -106 60 -20 38 -19 68 3 109 36 66 116 87 179 46z
m-257 -100 c59 -30 80 -127 39 -179 -45 -58 -114 -71 -170 -33 -46 31 -61 63
-55 117 8 88 104 137 186 95z m-292 -39 c89 -46 103 -158 28 -224 -46 -41 -94
-48 -150 -23 -53 23 -76 61 -76 124 0 97 113 167 198 123z"/>
<path d="M10124 15205 c-44 -8 -118 -26 -165 -41 l-84 -27 35 -10 c458 -125
697 -302 775 -572 14 -46 16 -81 12 -155 -9 -159 -59 -269 -181 -397 -272
-288 -763 -468 -1419 -522 -282 -24 -793 -3 -1077 44 -218 36 -804 89 -920 83
-95 -5 -124 -16 -207 -84 -65 -53 -96 -56 -138 -13 -106 109 -256 160 -407
139 -105 -15 -157 -35 -213 -81 -27 -22 -62 -47 -77 -55 -27 -14 -32 -13 -88
21 -145 88 -261 120 -409 112 -119 -6 -217 -31 -329 -83 -65 -30 -77 -32 -91
-20 -35 30 -86 47 -159 54 -114 10 -683 -37 -936 -78 -301 -49 -870 -79 -1140
-61 -663 45 -1144 215 -1431 506 -131 133 -188 265 -188 440 0 76 5 102 30
167 88 225 281 373 643 492 124 41 130 44 103 54 -106 44 -345 77 -467 67
-320 -29 -582 -202 -711 -470 -57 -118 -75 -195 -82 -337 -9 -183 21 -321 107
-506 154 -329 585 -667 1065 -835 390 -137 698 -199 1130 -227 94 -6 388 -9
660 -8 548 3 598 -1 835 -67 162 -44 277 -64 420 -72 63 -3 118 -11 122 -16
14 -22 20 -214 8 -251 -14 -42 -78 -101 -129 -117 -51 -16 -52 -19 -36 -71 7
-26 24 -98 36 -160 24 -118 43 -155 121 -235 27 -27 29 -33 14 -33 -18 0 -19
-7 -12 -107 7 -116 26 -216 51 -264 11 -20 33 -37 68 -53 29 -13 64 -37 78
-53 23 -28 27 -43 33 -139 12 -196 13 -199 57 -218 21 -10 54 -36 73 -59 61
-76 69 -127 67 -431 -1 -206 6 -342 24 -422 3 -14 20 -25 58 -37 109 -34 191
-121 228 -238 l20 -66 62 22 c64 24 227 55 283 55 l32 0 4 91 c3 90 3 91 38
119 19 16 56 39 82 51 l46 22 6 136 c14 310 27 560 33 625 l6 68 68 49 c72 53
72 54 84 161 5 49 9 57 31 62 50 13 64 39 64 124 l0 77 55 48 c47 41 57 57 75
115 30 95 38 243 16 277 -22 34 -51 32 -66 -4 -31 -76 -80 -79 -80 -4 0 53 28
118 65 153 23 21 26 22 42 8 20 -17 104 -61 107 -56 1 2 7 28 14 58 6 30 21
89 32 130 12 42 23 121 26 180 5 96 4 109 -18 150 -12 25 -34 51 -48 57 -39
20 -120 16 -163 -7 -21 -11 -42 -18 -47 -15 -6 4 -10 24 -10 45 0 49 16 59
125 75 l80 11 -1 50 -1 50 66 -8 c98 -10 259 -9 348 3 43 5 139 27 213 49 266
75 486 100 900 100 633 0 1068 64 1510 219 333 118 587 272 819 496 177 172
266 309 336 518 110 331 45 667 -173 899 -113 119 -223 187 -379 234 -74 22
-112 27 -233 30 -95 2 -173 -2 -226 -11z m-4379 -1649 c28 -9 95 -43 149 -76
129 -78 145 -78 241 -5 93 72 164 97 275 98 132 2 245 -44 354 -144 30 -27 61
-49 69 -49 19 0 75 26 160 74 l67 38 77 -17 c113 -25 290 -83 356 -117 l59
-29 -7 -82 c-3 -45 -9 -90 -11 -99 -4 -13 5 -22 32 -33 52 -22 133 -85 150
-117 8 -15 14 -38 14 -52 0 -22 -5 -25 -52 -31 -29 -4 -68 -14 -87 -21 -19 -8
-35 -13 -36 -12 -2 2 -24 36 -50 76 -26 42 -51 70 -56 65 -5 -5 -13 -39 -18
-77 -13 -89 -29 -106 -108 -113 -70 -6 -117 13 -185 78 -39 37 -43 39 -55 23
-33 -46 -3 -105 75 -146 62 -33 34 -58 -65 -58 -44 0 -60 6 -106 38 -49 33
-57 44 -73 95 -13 43 -22 57 -36 57 -56 0 -93 62 -104 174 l-7 69 -18 -34
c-23 -43 -25 -147 -4 -215 19 -62 19 -74 0 -74 -31 0 -22 -19 70 -145 25 -35
6 -76 -42 -92 -23 -8 -61 -31 -85 -52 -36 -33 -43 -44 -42 -77 0 -22 7 -52 15
-69 12 -26 22 -31 73 -39 47 -7 65 -5 93 8 37 18 66 14 96 -12 14 -13 17 -33
17 -136 0 -67 -5 -138 -11 -160 l-11 -39 -38 80 c-46 93 -84 125 -174 143 -73
15 -141 5 -171 -24 -13 -13 -30 -55 -44 -106 -12 -47 -29 -102 -38 -123 -15
-34 -15 -41 -2 -60 10 -16 15 -66 19 -177 5 -170 1 -157 79 -245 l32 -36 97
90 97 90 3 -42 c6 -68 -13 -109 -77 -174 l-59 -59 10 -85 c6 -56 6 -93 -1
-111 -9 -24 -13 -26 -50 -21 l-41 6 0 -38 c0 -74 -20 -112 -93 -181 l-69 -66
-10 -261 c-5 -144 -11 -321 -14 -394 l-6 -132 -49 -16 c-71 -24 -126 -99 -144
-196 l-7 -36 -101 -22 c-56 -11 -105 -21 -109 -21 -4 0 -24 33 -45 73 -47 90
-134 180 -191 198 -31 9 -43 19 -52 42 -6 18 -10 151 -10 343 0 398 0 396 -96
492 l-74 73 -25 122 c-31 149 -81 258 -135 292 -19 12 -41 29 -47 37 -18 21
-41 124 -45 198 -3 60 -2 65 17 62 30 -6 42 -19 85 -92 21 -37 61 -90 87 -118
l49 -52 27 27 c14 16 33 45 42 66 13 32 18 36 35 27 10 -5 21 -10 24 -10 9 0
7 107 -5 223 l-11 107 27 31 c14 17 24 39 21 48 -2 9 -7 51 -11 94 -6 70 -10
81 -39 110 -39 39 -114 67 -178 67 -61 0 -172 -40 -209 -76 -57 -54 -57 -125
0 -274 11 -29 18 -51 17 -49 -2 2 -25 35 -51 73 -41 61 -48 78 -60 160 -8 50
-17 105 -20 122 -6 28 -4 32 24 44 41 17 88 71 120 140 23 49 26 66 25 165 -1
70 -7 128 -17 159 l-16 49 30 27 c37 36 37 50 -1 50 -34 0 -45 17 -36 55 5 18
15 27 37 32 l31 6 -4 107 c-2 71 -8 113 -17 124 -22 26 -31 19 -31 -26 0 -75
-28 -181 -52 -201 -11 -10 -26 -16 -32 -14 -56 21 -56 21 -56 -28 0 -60 -35
-143 -64 -151 -24 -6 -107 11 -138 27 -46 25 -43 113 9 228 l24 55 -68 -66
c-78 -75 -127 -97 -174 -78 -32 14 -85 80 -120 153 -13 26 -26 47 -30 47 -4 0
-12 -14 -19 -30 -7 -17 -28 -44 -47 -60 -66 -58 -163 -30 -163 47 0 66 29 91
114 102 49 6 52 8 79 56 26 47 28 56 24 139 l-5 88 57 25 c52 23 71 25 251 30
183 6 199 5 243 -15 28 -13 54 -33 64 -51 l17 -29 66 33 c71 36 222 91 285
105 54 12 189 4 250 -14z m2235 -90 c338 -47 471 -58 777 -63 322 -6 479 3
657 37 55 11 101 18 103 16 2 -2 -18 -22 -44 -46 -62 -53 -331 -186 -488 -240
-130 -45 -312 -91 -440 -111 -108 -18 -393 -18 -470 0 -189 42 -303 174 -313
360 -4 78 -3 83 14 78 11 -3 102 -17 204 -31z m-5276 -58 c127 -20 179 -22
521 -23 239 0 428 5 510 13 174 17 455 52 479 59 18 5 19 1 13 -68 -8 -112
-39 -183 -111 -255 -44 -44 -77 -67 -118 -82 -219 -82 -620 -42 -997 99 -142
54 -317 137 -411 196 -56 36 -120 91 -120 104 0 4 21 1 47 -7 25 -8 110 -24
187 -36z"/>
<path d="M5634 13113 c4 -60 10 -151 14 -204 l7 -97 49 -52 48 -52 -28 -30
c-42 -43 -76 -58 -135 -58 -51 0 -51 0 -46 -28 14 -67 49 -143 72 -152 23 -9
35 -29 35 -61 0 -16 7 -19 49 -19 26 0 75 3 108 6 l59 6 29 75 c15 40 31 76
36 78 4 3 44 10 89 16 l82 11 23 -28 23 -28 53 26 c30 15 75 35 101 45 39 15
57 33 114 108 37 50 81 105 97 123 37 38 28 40 -68 17 -60 -14 -249 -20 -279
-9 -26 10 -10 92 26 130 35 38 29 59 -26 93 -52 33 -77 28 -108 -22 -15 -23
-38 -55 -51 -71 -23 -28 -26 -29 -56 -17 -17 8 -94 78 -170 157 -77 79 -143
144 -147 144 -4 0 -4 -48 0 -107z"/>
<path d="M5978 11857 c-9 -102 -12 -176 -6 -182 15 -16 41 8 80 75 34 60 35
65 23 99 -18 51 -67 165 -75 173 -3 5 -13 -70 -22 -165z"/>
<path d="M6020 11535 c0 -47 -7 -82 -25 -125 -14 -33 -25 -72 -25 -87 0 -47
36 -158 51 -161 12 -2 17 33 27 202 7 113 15 212 18 221 5 11 -1 15 -20 15
-25 0 -26 -2 -26 -65z"/>
<path d="M5983 11012 c-10 -6 -10 -38 -2 -147 6 -77 7 -141 2 -142 -4 -2 -23
-12 -40 -23 l-33 -20 0 -180 0 -179 29 5 c45 9 55 -19 48 -141 l-6 -101 35
-13 c49 -18 78 -6 70 28 -3 14 -12 57 -20 95 -15 70 -15 70 13 135 55 126 67
193 52 277 -9 49 -17 65 -48 92 l-38 33 -5 142 c-5 133 -6 142 -25 145 -11 1
-26 -2 -32 -6z"/>
<path d="M5726 15169 c-831 -80 -1581 -500 -2081 -1164 -94 -125 -194 -284
-254 -402 l-40 -81 82 4 c237 13 394 27 502 44 125 20 622 71 879 91 169 12
217 8 297 -28 l57 -25 68 30 c139 61 209 77 339 77 83 0 140 -6 185 -18 70
-19 234 -93 251 -113 8 -10 26 -2 77 36 97 71 157 92 277 97 74 4 117 1 165
-12 78 -20 183 -73 238 -121 l41 -34 64 45 c89 62 117 72 228 80 l95 7 223
256 c123 141 219 257 215 258 -5 2 -414 21 -909 44 -495 23 -913 44 -929 48
-17 4 330 18 770 30 439 12 839 25 888 29 l90 6 -30 24 c-111 90 -347 229
-523 308 -739 332 -1566 338 -2311 18 -121 -52 -266 -127 -360 -187 -161 -103
-71 -27 117 100 376 252 793 406 1249 459 148 17 475 20 609 5 272 -31 541
-98 774 -194 35 -14 66 -24 68 -22 2 2 -26 35 -64 74 -66 67 -72 70 -169 101
-216 68 -433 111 -654 131 -133 12 -395 11 -524 -1z"/>
<path d="M7519 13891 l-227 -216 57 -8 c80 -10 425 -46 427 -44 2 4 -25 480
-28 482 -2 2 -105 -95 -229 -214z"/>
<path d="M7900 13860 c0 -96 -3 -192 -6 -212 -6 -35 -5 -37 27 -42 205 -32
321 -47 326 -42 13 13 -175 275 -299 417 l-48 54 0 -175z"/>
<path d="M10310 9874 c-140 -29 -256 -54 -257 -54 -2 0 -3 -140 -3 -310 l0
-310 23 5 c50 12 512 105 519 105 5 0 8 140 8 310 0 289 -1 310 -17 309 -10
-1 -133 -25 -273 -55z"/>
<path d="M8840 9084 c-140 -29 -256 -54 -257 -54 -5 0 -3 -130 1 -130 3 0 125
25 271 55 147 30 269 55 271 55 2 0 4 29 4 65 0 56 -3 65 -17 64 -10 -1 -133
-25 -273 -55z"/>
<path d="M7388 9277 l-248 -52 0 -311 0 -312 263 54 c144 30 263 54 265 54 1
0 2 140 2 310 0 289 -1 310 -17 309 -10 0 -129 -24 -265 -52z"/>
<path d="M5930 8484 c-140 -29 -256 -53 -257 -54 -5 0 -3 -130 1 -130 15 0
539 111 547 116 5 3 9 32 9 65 0 55 -2 59 -22 58 -13 0 -138 -25 -278 -55z"/>
<path d="M3395 7959 c-126 -26 -240 -51 -252 -54 -21 -5 -23 -11 -23 -71 0
-64 1 -66 23 -61 12 3 136 29 275 58 l252 52 0 64 c0 59 -1 63 -22 62 -13 -1
-126 -23 -253 -50z"/>
<path d="M7565 7026 l-250 -52 -3 -312 c-1 -172 -1 -312 1 -312 8 0 492 101
510 106 16 5 17 29 17 315 0 241 -3 309 -12 308 -7 0 -125 -24 -263 -53z"/>
</g>
</svg>
