<?xml version="1.0" standalone="no"?>
<!DOCTYPE svg PUBLIC "-//W3C//DTD SVG 20010904//EN"
 "http://www.w3.org/TR/2001/REC-SVG-20010904/DTD/svg10.dtd">
<svg version="1.0" xmlns="http://www.w3.org/2000/svg"
 width="852.000000pt" height="609.000000pt" viewBox="0 0 852.000000 609.000000"
 preserveAspectRatio="xMidYMid meet">
<metadata>
Created by potrace 1.16, written by Peter Selinger 2001-2019
</metadata>
<g transform="translate(0.000000,609.000000) scale(0.100000,-0.100000)"
fill="#000000" stroke="none">
<path d="M1382 4740 c-5 -14 -33 -94 -62 -177 -29 -84 -55 -153 -59 -153 -3 0
-82 54 -176 119 -93 65 -172 114 -173 109 -3 -8 31 -249 43 -305 4 -19 -7 -14
-72 33 -68 49 -162 104 -177 104 -3 0 6 -17 20 -37 35 -51 100 -181 125 -251
12 -31 24 -60 28 -64 4 -4 43 10 87 32 117 57 274 107 415 131 158 27 409 22
558 -10 52 -12 95 -21 96 -21 2 0 6 26 10 58 9 81 45 229 67 281 10 24 17 45
15 47 -5 5 -135 -121 -176 -170 -18 -21 -34 -37 -36 -35 -2 2 -9 76 -15 164
-6 88 -13 161 -14 163 -2 1 -65 -66 -141 -150 -77 -84 -144 -154 -149 -156 -9
-2 -64 81 -183 277 l-22 36 -9 -25z"/>
<path d="M1385 4194 c-106 -17 -230 -54 -339 -100 l-88 -37 47 -18 c52 -20
108 -67 131 -111 17 -34 19 -33 -42 -7 -58 26 -137 28 -181 6 -88 -46 -117
-180 -69 -319 12 -38 19 -68 15 -68 -18 0 -83 76 -101 116 -27 62 -33 157 -14
219 8 27 14 50 12 52 -1 2 -36 -25 -77 -60 -83 -71 -170 -163 -229 -241 -48
-63 -140 -216 -140 -233 0 -7 26 -14 65 -18 36 -4 68 -11 70 -16 3 -4 -14 -35
-38 -67 -110 -150 -218 -421 -243 -609 -5 -42 -4 -53 7 -53 8 0 63 16 123 35
61 19 111 33 112 32 1 -1 -3 -25 -8 -52 -18 -83 -14 -435 6 -545 18 -100 67
-259 90 -292 13 -19 16 -18 67 28 97 84 220 224 314 357 33 48 50 65 56 55 4
-7 15 -51 25 -98 28 -125 26 -402 -4 -566 -12 -67 -22 -126 -22 -131 0 -14
119 -67 205 -92 263 -76 601 -24 860 133 42 25 77 46 79 46 2 0 7 -17 11 -37
3 -21 14 -64 22 -95 l16 -57 60 42 c89 62 219 196 283 293 94 141 162 322 180
479 l7 59 59 -63 c33 -35 61 -61 63 -59 8 9 45 143 61 223 26 133 24 377 -4
512 -40 186 -104 340 -220 527 l-57 91 -6 -38 c-3 -20 -8 -39 -10 -42 -3 -2
-28 22 -57 54 -50 58 -51 59 -32 76 25 23 25 36 0 85 -25 48 -49 51 -103 14
-34 -23 -40 -24 -55 -11 -9 8 -37 25 -62 37 l-44 22 17 -23 c9 -13 31 -47 47
-75 16 -28 58 -73 92 -101 81 -66 141 -129 113 -119 -72 26 -250 24 -319 -3
-29 -12 -31 -10 -132 96 -114 119 -122 139 -83 202 11 18 18 36 15 39 -4 3
-33 -9 -67 -26 l-60 -31 -37 24 c-64 42 -163 78 -202 72 -43 -6 -133 -48 -175
-83 -30 -24 -30 -25 -10 -40 11 -9 45 -28 74 -42 46 -21 75 -26 176 -31 l121
-6 58 -50 c58 -49 158 -156 153 -162 -2 -1 -19 2 -38 9 -19 6 -121 12 -240 13
-196 2 -208 3 -260 27 -98 45 -158 113 -174 200 -7 34 -9 36 -56 40 -27 3 -53
8 -57 13 -11 11 86 91 148 122 30 16 57 29 59 31 3 1 -10 15 -29 31 l-34 28
44 32 c72 52 182 100 291 128 l102 25 56 -27 c31 -15 101 -56 155 -92 76 -49
101 -61 107 -51 11 16 29 78 29 99 0 9 3 19 6 22 17 17 211 -108 344 -222 l51
-43 -22 53 c-39 98 -48 129 -55 180 -6 45 -11 53 -63 94 -67 53 -186 114 -295
149 -44 15 -81 25 -82 23 -2 -2 3 -25 11 -52 8 -26 15 -59 15 -72 0 -22 -6
-18 -60 35 -32 33 -80 74 -106 91 l-47 31 -151 -1 c-83 -1 -187 -7 -231 -15z
m753 -1024 c24 -16 66 -39 93 -51 l49 -23 0 -90 c0 -50 -4 -96 -8 -102 -4 -7
-47 -42 -97 -79 -112 -83 -215 -134 -281 -137 l-48 -3 -78 145 c-42 80 -77
148 -78 152 0 9 171 123 234 155 42 22 147 61 166 62 3 0 25 -13 48 -29z m401
-17 c44 -111 53 -273 20 -379 l-21 -67 -30 49 c-17 27 -51 71 -74 98 l-44 48
0 97 1 96 62 42 c34 24 65 43 68 43 4 0 12 -12 18 -27z m-112 -508 c28 -50 33
-68 30 -108 -6 -66 -65 -182 -124 -240 l-48 -49 -3 34 c-4 52 -22 172 -27 176
-2 2 -19 -7 -37 -21 -39 -30 -156 -87 -179 -87 -9 0 -34 34 -62 88 l-47 89 43
13 c60 18 101 40 189 103 79 57 107 66 197 63 31 -1 37 -7 68 -61z"/>
<path d="M3310 3605 l0 -575 115 0 115 0 0 189 0 189 133 4 c161 6 220 25 302
99 92 85 135 212 116 346 -22 152 -113 258 -259 303 -56 17 -93 20 -293 20
l-229 0 0 -575z m469 340 c46 -27 71 -64 78 -113 18 -138 -67 -212 -244 -212
l-73 0 0 176 0 176 103 -4 c79 -2 110 -8 136 -23z"/>
<path d="M6754 4134 c-89 -44 -86 -182 6 -229 61 -31 139 -6 172 56 23 43 23
75 0 119 -33 62 -113 86 -178 54z"/>
<path d="M4923 3795 c-108 -29 -197 -106 -251 -215 -25 -50 -27 -65 -27 -170
0 -105 2 -120 28 -176 93 -202 355 -282 571 -175 34 16 76 45 94 64 l32 33
-60 65 c-45 48 -63 61 -74 54 -79 -58 -120 -74 -191 -74 -63 -1 -125 27 -157
70 -54 73 -70 69 242 69 l280 0 0 73 c0 272 -229 451 -487 382z m197 -194 c35
-18 80 -72 80 -97 0 -11 -34 -14 -170 -14 -112 0 -170 4 -170 10 0 22 31 69
58 88 58 42 133 47 202 13z"/>
<path d="M5793 3785 c-29 -14 -61 -40 -72 -58 l-20 -31 -12 47 -11 47 -94 0
-94 0 0 -380 0 -380 105 0 105 0 0 228 c0 125 5 244 10 264 24 86 127 117 192
59 l33 -29 5 -259 5 -258 103 -3 102 -3 0 223 c0 123 5 241 10 263 21 91 124
127 192 66 l33 -29 5 -259 5 -258 103 -3 102 -3 0 279 c0 312 -4 338 -67 411
-56 66 -103 86 -203 86 -75 0 -91 -3 -133 -28 -26 -15 -57 -41 -69 -57 l-22
-30 -29 35 c-39 48 -99 77 -172 82 -50 4 -68 0 -112 -22z"/>
<path d="M7273 3790 c-120 -39 -216 -137 -253 -258 -64 -207 34 -420 227 -492
152 -57 338 -25 453 78 l41 37 -65 64 -65 64 -35 -27 c-109 -82 -267 -72 -331
22 -14 20 -25 42 -25 49 0 10 60 13 275 13 l274 0 6 34 c4 19 2 67 -4 107 -21
134 -101 243 -219 297 -78 35 -192 40 -279 12z m226 -197 c26 -20 71 -79 71
-94 0 -5 -79 -9 -176 -9 l-175 0 7 23 c32 100 185 145 273 80z"/>
<path d="M4485 3785 c-22 -8 -57 -32 -77 -54 -40 -42 -39 -43 -53 27 l-7 32
-89 0 -89 0 0 -380 0 -380 104 0 105 0 3 234 c3 220 4 236 24 263 36 48 81 68
152 67 l62 0 0 97 c0 79 -3 98 -16 103 -26 10 -76 6 -119 -9z"/>
<path d="M8173 3783 c-25 -8 -57 -31 -77 -54 l-34 -40 -12 51 -12 50 -89 0
-89 0 0 -380 0 -380 105 0 105 0 0 218 c0 206 1 220 23 262 31 62 74 85 160
84 l67 0 0 97 c0 92 -1 97 -22 103 -36 9 -80 6 -125 -11z"/>
<path d="M6710 3410 l0 -380 105 0 105 0 0 380 0 380 -105 0 -105 0 0 -380z"/>
<path d="M3312 2348 l3 -563 355 0 355 0 0 105 0 105 -242 3 -243 2 0 455 0
455 -115 0 -115 0 2 -562z"/>
<path d="M4331 2540 c-107 -39 -174 -102 -225 -210 -29 -60 -31 -73 -31 -170
0 -93 3 -112 27 -162 36 -76 72 -123 125 -159 152 -105 370 -99 519 14 24 17
46 38 49 46 4 9 -18 38 -56 77 l-62 63 -34 -29 c-36 -32 -117 -60 -172 -60
-50 1 -110 30 -149 74 -59 67 -64 66 243 66 l274 0 7 36 c9 50 -12 166 -41
228 -32 67 -105 140 -175 173 -76 37 -219 43 -299 13z m233 -189 c17 -11 42
-38 55 -61 l22 -40 -175 0 c-97 0 -176 2 -176 5 0 14 30 62 48 78 54 49 162
57 226 18z"/>
<path d="M7834 2551 c-286 -73 -391 -456 -184 -670 103 -105 277 -143 439 -95
54 16 169 87 178 109 3 10 -15 37 -54 78 l-60 62 -47 -32 c-98 -67 -210 -70
-286 -6 -27 22 -60 71 -60 88 0 3 123 5 274 5 240 0 275 2 280 16 18 46 -7
191 -45 265 -30 60 -102 127 -167 157 -46 21 -75 27 -147 29 -49 1 -104 -2
-121 -6z m202 -202 c19 -11 44 -39 55 -60 l19 -39 -174 0 c-172 0 -174 0 -169
21 9 31 68 87 106 98 46 15 123 5 163 -20z"/>
<path d="M5167 2531 c-93 -38 -157 -97 -210 -196 -30 -57 -32 -65 -32 -170 0
-104 2 -114 32 -176 41 -83 107 -150 190 -191 55 -27 76 -32 141 -32 88 0 144
20 205 73 l36 32 12 -46 12 -46 91 3 91 3 3 378 2 377 -95 0 -95 0 -11 -45
-11 -44 -30 30 c-51 51 -85 63 -188 66 -76 3 -105 -1 -143 -16z m269 -196 c51
-30 94 -107 94 -171 0 -64 -45 -142 -99 -171 -101 -53 -224 -16 -271 81 -45
95 -9 220 77 265 56 30 144 28 199 -4z"/>
<path d="M6059 2527 c-180 -75 -278 -263 -235 -450 30 -129 95 -215 205 -270
118 -59 238 -58 335 3 26 17 49 30 53 30 10 0 -7 -102 -22 -130 -23 -45 -71
-78 -132 -90 -96 -20 -184 1 -271 67 -18 14 -34 23 -36 22 -1 -2 -26 -37 -55
-77 -31 -42 -51 -78 -47 -87 9 -24 125 -94 186 -113 86 -26 258 -23 332 6 82
33 147 81 185 136 61 89 63 106 63 558 l0 409 -92 -3 -92 -3 -7 -33 c-9 -46
-13 -47 -45 -16 -50 46 -101 64 -189 64 -61 0 -94 -6 -136 -23z m288 -203 c57
-47 78 -89 78 -159 0 -70 -21 -112 -78 -158 -51 -42 -143 -50 -205 -18 -51 26
-98 88 -107 141 -9 53 17 138 52 172 50 48 82 59 155 56 57 -3 72 -8 105 -34z"/>
<path d="M6720 2343 c0 -226 11 -316 44 -388 82 -177 322 -244 523 -145 72 36
124 93 156 172 19 48 21 78 25 306 l4 252 -105 0 -105 0 -4 -227 c-3 -209 -5
-231 -24 -263 -31 -54 -77 -80 -141 -80 -70 0 -108 20 -134 71 -19 39 -21 57
-20 270 l2 229 -111 0 -110 0 0 -197z"/>
</g>
</svg>
