<?xml version="1.0" standalone="no"?>
<!DOCTYPE svg PUBLIC "-//W3C//DTD SVG 20010904//EN"
 "http://www.w3.org/TR/2001/REC-SVG-20010904/DTD/svg10.dtd">
<svg version="1.0" xmlns="http://www.w3.org/2000/svg"
 width="706.000000pt" height="960.000000pt" viewBox="0 0 706.000000 960.000000"
 preserveAspectRatio="xMidYMid meet">
<metadata>
Created by potrace 1.16, written by Peter Selinger 2001-2019
</metadata>
<g transform="translate(0.000000,960.000000) scale(0.100000,-0.100000)"
fill="#000000" stroke="none">
<path d="M2775 9464 c-33 -70 -72 -139 -87 -155 -34 -34 -64 -99 -108 -234
-30 -93 -31 -104 -20 -148 7 -28 10 -72 6 -105 -5 -41 3 -20 29 78 54 203 137
444 199 574 30 64 51 116 47 116 -4 0 -34 -57 -66 -126z"/>
<path d="M3850 9585 c0 -3 18 -41 40 -85 48 -96 109 -246 144 -358 48 -154
121 -466 154 -662 l10 -55 1 58 c1 35 9 76 22 103 18 40 19 52 9 102 -43 215
-144 531 -244 757 l-61 140 -38 3 c-20 2 -37 1 -37 -3z"/>
<path d="M4241 9214 c-1 -6 8 -36 18 -66 29 -85 97 -358 125 -503 70 -367 99
-693 99 -1115 0 -535 -31 -873 -119 -1304 -40 -199 -114 -509 -120 -503 -2 2
9 66 25 143 65 307 106 614 96 724 -4 36 1 171 9 300 9 129 15 322 14 430 -2
139 -3 158 -5 65 -20 -1085 -187 -1857 -507 -2350 -29 -44 -51 -86 -49 -92 3
-7 -1 -22 -7 -35 -6 -13 7 -3 30 22 63 69 176 241 234 359 71 140 149 338 142
357 -3 8 -2 12 4 9 27 -17 173 554 214 840 116 805 80 1654 -99 2380 -41 164
-102 366 -104 339z"/>
<path d="M2133 8647 c-99 -101 -185 -217 -259 -347 -52 -93 -132 -277 -148
-345 -7 -29 -7 -29 8 -10 8 11 16 16 16 10 0 -5 25 39 55 98 93 184 186 317
316 452 53 54 60 68 79 139 11 44 19 81 17 83 -2 1 -40 -34 -84 -80z"/>
<path d="M4494 8652 c19 -71 28 -87 92 -158 170 -190 256 -326 355 -559 21
-49 39 -85 39 -80 0 6 5 3 10 -5 17 -26 -1 48 -37 155 -83 242 -228 480 -407
663 -33 34 -63 62 -67 62 -4 0 3 -35 15 -78z"/>
<path d="M2049 8112 c-69 -106 -101 -170 -144 -281 -36 -94 -79 -279 -72 -308
3 -12 5 -9 6 9 2 45 58 197 101 273 23 39 65 98 94 131 l52 59 12 100 c6 54
10 100 9 102 -1 1 -28 -37 -58 -85z"/>
<path d="M4590 8178 c0 -68 25 -244 36 -251 24 -14 100 -120 138 -191 65 -123
97 -245 120 -456 2 -19 1 15 -1 75 -12 287 -85 524 -235 758 -51 78 -58 86
-58 65z"/>
<path d="M2320 7756 c0 -14 -5 -80 -10 -148 -6 -68 -12 -274 -13 -458 -3 -268
-7 -360 -22 -460 -23 -148 -22 -191 5 -352 60 -359 193 -779 336 -1058 146
-287 337 -494 528 -574 58 -24 57 -19 -4 15 -30 16 -77 49 -105 72 -27 23 -44
34 -36 24 25 -32 -4 -17 -56 28 -106 93 -217 270 -303 481 -45 110 -45 111
-25 94 9 -8 4 16 -15 70 -93 253 -178 618 -225 965 -42 311 -50 453 -50 893 0
237 -1 432 -2 432 -2 0 -3 -11 -3 -24z"/>
<path d="M4884 7580 c44 -279 24 -604 -59 -973 -14 -62 -28 -121 -31 -132 -4
-15 -3 -16 4 -6 6 8 20 12 36 9 24 -5 27 0 56 81 50 135 107 373 126 521 13
104 15 173 10 300 -3 91 -9 181 -13 200 l-8 35 -63 0 -64 0 6 -35z"/>
<path d="M1743 7572 l-61 -3 -8 -62 c-21 -172 -2 -441 47 -657 27 -117 102
-349 107 -327 4 19 32 23 49 6 5 -5 -5 63 -23 152 -19 90 -40 221 -49 293 -16
142 -19 393 -5 521 4 44 7 80 7 80 -1 0 -30 -1 -64 -3z"/>
<path d="M3024 5346 c0 -28 83 -106 148 -139 64 -32 149 -50 203 -41 36 5 40
9 40 33 0 28 -1 28 -76 34 -93 7 -171 36 -253 92 -56 38 -62 40 -62 21z"/>
<path d="M3171 4489 c58 -57 118 -121 133 -141 l28 -37 -61 -81 c-68 -91 -133
-218 -151 -298 -24 -102 -7 -212 48 -314 1 -3 -7 -10 -20 -13 -13 -4 -43 -24
-68 -45 -25 -20 -51 -35 -58 -32 -8 2 -32 -3 -56 -12 l-42 -16 9 -93 c4 -50 7
-120 5 -155 -2 -50 0 -62 12 -62 29 0 207 49 305 84 l101 36 83 -30 c115 -42
296 -92 491 -135 247 -55 473 -133 666 -230 90 -46 164 -79 164 -74 0 7 51 98
66 118 5 6 133 -89 193 -145 33 -30 62 -51 65 -46 7 12 -76 115 -159 196 -144
141 -377 281 -615 369 -52 20 -219 72 -370 116 -282 82 -448 141 -526 187
-112 66 -195 244 -178 383 8 68 41 161 78 226 l28 47 19 -28 c10 -16 33 -63
51 -104 27 -65 32 -90 36 -180 4 -118 -14 -191 -64 -257 l-27 -36 49 7 c71 10
165 43 216 75 25 16 45 23 45 17 0 -6 12 -37 27 -68 15 -32 24 -63 21 -70 -4
-7 0 -5 9 6 17 20 36 100 36 149 0 82 -54 211 -132 317 -23 30 -84 97 -137
148 l-95 92 84 88 c86 87 63 73 -42 -27 l-56 -53 -79 59 c-43 33 -114 84 -158
113 l-80 54 106 -105z"/>
<path d="M2571 3405 c-253 -83 -435 -190 -668 -394 -58 -51 -162 -164 -135
-147 22 14 14 -71 -11 -112 -23 -37 -34 -87 -16 -77 5 4 35 41 66 83 71 96
231 263 343 356 159 133 296 214 550 324 55 23 -2 9 -129 -33z"/>
<path d="M3115 2715 c-428 -47 -823 -214 -1150 -486 -49 -42 -96 -83 -104 -92
-7 -9 -18 -17 -24 -17 -32 0 201 197 338 286 44 28 123 75 175 103 52 28 91
51 86 51 -16 0 -211 -108 -302 -168 -93 -61 -197 -143 -299 -236 l-60 -54 29
-30 28 -31 99 89 c292 261 622 428 1001 504 662 134 1360 -63 1849 -522 l76
-71 29 30 29 31 -78 73 c-192 182 -446 340 -710 441 -92 36 -343 105 -375 103
-9 0 43 -16 117 -34 233 -60 452 -158 655 -292 101 -67 255 -191 291 -234 11
-13 -11 4 -50 37 -153 131 -277 215 -456 304 -368 185 -781 259 -1194 215z"/>
<path d="M3125 2511 c-3 -10 -3 -26 1 -35 3 -9 4 -16 2 -16 -3 0 -61 -11 -129
-25 -68 -14 -127 -25 -131 -25 -5 0 -8 -6 -8 -14 0 -9 -8 -12 -27 -8 -25 5
-26 4 -19 -29 4 -19 9 -54 11 -79 4 -31 -2 -18 -16 38 -11 46 -23 82 -25 79
-4 -4 47 -278 65 -342 27 -101 98 -122 287 -85 l115 23 -7 41 c-8 53 -13 61
-27 42 -16 -20 -214 -59 -236 -46 -13 7 -9 10 19 11 29 2 30 3 9 6 -34 5 -54
28 -67 76 -10 34 -9 37 11 42 35 8 219 45 224 45 7 0 -5 79 -13 92 -3 5 -11 2
-17 -6 -7 -9 -53 -24 -111 -36 -107 -22 -130 -24 -122 -12 2 4 -2 34 -9 67 -8
33 -11 63 -7 66 4 4 63 19 132 33 68 15 126 28 128 30 4 5 -17 86 -23 86 -2 0
-6 -8 -10 -19z"/>
<path d="M3637 2403 c-19 -43 -107 -368 -107 -395 0 -19 20 -32 66 -42 l31 -7
28 111 c22 91 30 110 44 106 50 -16 208 -56 218 -56 7 0 17 17 22 38 15 50 14
54 -8 47 -17 -5 -133 19 -219 46 -27 9 -31 13 -19 22 8 7 21 33 31 59 9 25 24
49 32 52 12 5 167 -28 233 -49 15 -4 21 3 30 39 6 25 11 48 11 53 -1 13 -40
-38 -40 -52 0 -11 -20 -8 -87 11 -49 13 -106 24 -128 24 -22 0 -50 7 -62 15
-18 13 -22 12 -37 -4 -10 -10 -28 -52 -41 -92 -13 -41 -22 -58 -19 -39 4 19
14 60 24 90 22 65 20 76 -3 23z"/>
<path d="M2350 2238 c0 -8 5 -19 12 -26 9 -9 7 -16 -7 -32 -16 -17 -21 -18
-34 -7 -69 59 -51 22 50 -104 98 -122 119 -156 119 -189 0 -31 -25 -74 -60
-104 -38 -31 -101 -35 -142 -8 -15 9 -73 73 -130 141 -56 68 -104 119 -106
113 -2 -6 4 -22 12 -35 15 -22 15 -25 -4 -42 -20 -18 -21 -18 -45 5 -58 54
-29 4 63 -111 116 -146 157 -184 214 -200 142 -38 308 93 308 244 0 64 -22
103 -128 233 -100 122 -122 145 -122 122z"/>
<path d="M4395 2078 c-27 -18 -118 -76 -201 -130 -83 -54 -154 -98 -158 -98
-5 0 67 50 158 110 91 61 166 113 166 116 0 4 -10 0 -22 -8 -13 -8 -92 -58
-175 -112 -84 -54 -155 -101 -158 -106 -3 -5 16 -20 43 -34 l49 -25 168 110
c92 60 170 107 173 104 3 -3 12 9 19 26 7 18 15 30 18 27 5 -4 -71 -258 -80
-266 -9 -9 -36 21 -31 34 11 29 -27 32 -66 7 -21 -14 -38 -29 -38 -33 0 -15
100 -81 111 -74 12 7 5 -38 -13 -86 -7 -20 -11 -22 -18 -10 -8 12 -10 11 -10
-5 0 -18 76 -93 85 -84 11 11 145 505 142 523 -3 20 -4 20 -16 -5 l-13 -26
-37 39 c-21 21 -40 38 -42 37 -2 0 -26 -14 -54 -31z"/>
<path d="M3240 1819 c-266 -19 -515 -124 -732 -311 -39 -34 -65 -52 -59 -41
25 48 184 169 311 237 47 25 81 46 76 46 -5 0 -48 -21 -97 -47 -104 -54 -232
-149 -308 -227 l-55 -56 24 -25 c13 -14 28 -25 35 -25 6 0 40 29 75 65 71 72
200 165 295 212 251 126 575 160 847 88 198 -51 383 -157 542 -307 33 -32 62
-58 64 -58 2 0 18 12 35 26 l31 26 -79 74 c-167 159 -435 302 -615 328 -31 4
-19 -1 39 -19 219 -67 416 -180 541 -311 40 -42 36 -40 -30 16 -278 236 -577
334 -940 309z"/>
<path d="M6877 973 c-4 -3 -7 -44 -7 -90 0 -67 3 -83 15 -83 12 0 15 15 16 68
l1 67 25 -67 c14 -38 31 -68 38 -68 7 0 24 30 38 68 l25 67 1 -67 c1 -54 4
-68 16 -68 24 0 17 173 -6 178 -12 2 -24 -16 -44 -72 -15 -42 -29 -76 -30 -76
-1 0 -15 34 -30 75 -25 68 -40 87 -58 68z"/>
<path d="M790 688 c0 -411 15 -496 102 -585 63 -64 122 -86 255 -91 154 -6
232 17 308 91 44 43 57 64 74 121 28 90 36 266 26 539 -7 192 -9 207 -24 194
-9 -8 -25 -17 -37 -21 -39 -12 -68 -54 -76 -109 -6 -45 -6 -43 -4 21 2 39 1
72 -1 72 -2 0 -11 -16 -19 -35 -11 -27 -14 -89 -14 -287 0 -139 -5 -273 -11
-298 -14 -61 -58 -105 -121 -120 -105 -26 -215 5 -253 71 -18 31 -20 58 -25
324 -6 277 -12 344 -31 314 -6 -11 -13 -9 -31 8 -13 12 -36 27 -51 32 l-29 11
4 -317 c5 -340 12 -398 60 -467 17 -23 18 -27 4 -17 -9 8 -24 28 -33 45 -38
73 -43 123 -43 447 0 269 -2 318 -15 329 -13 11 -15 -20 -15 -272z"/>
<path d="M2125 961 c20 -8 -166 -21 -302 -21 -41 0 -83 -4 -93 -10 -34 -18
-40 -65 -42 -349 l-1 -276 -7 197 c-3 109 -8 200 -11 203 -7 6 -19 -344 -19
-542 l0 -143 90 0 90 0 0 395 0 395 150 0 c168 0 198 -8 225 -60 18 -35 19
-96 2 -129 -22 -44 -62 -64 -139 -72 l-73 -7 85 2 c125 4 160 35 160 143 0 69
-22 112 -71 136 -19 9 -28 17 -21 17 22 0 71 -39 87 -70 36 -69 11 -186 -47
-224 -26 -16 -123 -36 -178 -36 -42 0 -85 -29 -95 -63 -4 -12 -17 -30 -29 -39
-20 -17 -16 -18 109 -18 149 0 229 16 290 58 54 38 94 106 108 185 29 172 -73
313 -238 331 -28 2 -41 1 -30 -3z"/>
<path d="M3078 963 c7 -3 11 -21 10 -46 -1 -37 -2 -38 -5 -9 l-4 32 -259 0
c-239 0 -260 -1 -281 -19 l-24 -19 -3 -387 c-2 -336 -1 -391 13 -418 15 -31
15 -31 -2 -14 -16 16 -19 48 -24 320 -4 166 -8 309 -9 317 -9 51 -18 -122 -19
-337 -1 -208 2 -260 15 -292 27 -68 42 -71 358 -71 l276 0 0 80 0 80 -147 -1
c-82 0 -139 -4 -128 -8 13 -5 0 -10 -44 -14 -130 -14 -200 -6 -161 18 6 4 10
60 10 136 l0 129 174 0 c142 0 177 3 190 15 17 17 59 20 87 5 18 -10 19 -7 19
65 l0 75 -147 0 c-84 0 -142 -4 -135 -9 17 -10 -56 -21 -144 -21 -59 0 -79 9
-54 25 6 3 10 51 10 109 l0 103 218 7 c119 4 225 7 235 7 15 0 17 11 17 75 l0
74 -27 -1 c-16 0 -22 -3 -15 -6z"/>
<path d="M3685 961 c12 -5 -61 -11 -178 -16 -163 -6 -201 -10 -219 -24 -25
-20 -36 -79 -39 -206 -2 -70 -4 -78 -6 -32 -2 31 -8 57 -13 57 -6 0 -10 -139
-10 -360 l0 -361 85 3 86 3 -1 393 0 392 159 0 c157 0 160 0 190 -26 35 -29
55 -89 45 -131 -19 -78 -67 -100 -229 -109 -81 -5 -112 -10 -106 -18 5 -6 16
-45 25 -87 26 -118 100 -227 206 -302 24 -17 24 -17 -10 -1 -58 28 -142 122
-175 196 -31 69 -52 90 -41 40 15 -59 62 -140 115 -193 103 -103 261 -159 446
-159 92 0 112 10 62 31 -17 7 -59 41 -92 75 -47 47 -70 63 -100 68 -72 14
-161 63 -209 117 -25 28 -46 57 -46 64 0 8 22 14 61 19 167 17 269 127 269
290 0 158 -91 262 -245 279 -29 3 -42 2 -30 -2z"/>
<path d="M5102 615 c5 -418 6 -424 93 -512 74 -74 153 -97 308 -91 128 5 197
29 259 90 84 85 98 163 98 561 0 277 -5 340 -24 292 -3 -8 -13 -15 -22 -15
-31 0 -83 -48 -89 -83 -3 -17 -6 -159 -8 -315 l-2 -282 43 0 c32 0 42 4 42 17
0 9 2 14 5 11 4 -3 3 -18 -1 -33 -4 -15 -9 -23 -13 -17 -7 11 -91 21 -91 11 0
-4 -12 -22 -27 -40 -30 -36 -95 -69 -133 -68 -16 1 -7 6 25 14 68 19 119 73
134 144 6 31 11 160 11 319 0 195 3 271 12 280 9 9 9 12 0 12 -31 0 -37 -45
-42 -335 -5 -269 -7 -293 -25 -325 -12 -19 -35 -43 -53 -53 -68 -40 -220 -31
-270 16 -55 51 -56 60 -63 377 -3 162 -6 297 -7 299 -1 2 -9 1 -17 -3 -8 -3
-26 5 -40 18 -33 31 -64 39 -72 19 -7 -18 5 -582 13 -633 6 -34 6 -35 49 -32
31 3 45 9 47 20 3 12 6 9 9 -8 5 -24 4 -25 -43 -22 -57 5 -60 -3 -23 -74 20
-39 21 -44 5 -24 -11 14 -30 50 -42 80 -22 53 -23 70 -26 390 -2 208 -7 339
-13 345 -7 7 -9 -107 -7 -350z"/>
<path d="M6429 961 c13 -8 -176 -21 -309 -21 -69 0 -79 -2 -101 -26 -23 -25
-24 -32 -30 -217 -3 -106 -6 -156 -8 -112 -1 44 -6 89 -11 100 -5 12 -9 -122
-9 -322 l-1 -343 85 0 85 0 0 395 0 395 161 0 161 0 34 -34 c30 -30 34 -40 34
-89 0 -91 -40 -127 -155 -137 l-70 -7 73 -2 c76 -1 126 13 151 43 8 10 20 43
27 74 7 32 13 46 13 32 2 -70 -41 -136 -103 -160 -16 -6 -66 -14 -110 -17 -87
-7 -98 -14 -143 -87 l-22 -36 119 0 c188 0 268 24 334 102 43 50 66 119 66
198 0 149 -92 255 -239 273 -25 3 -39 2 -32 -2z"/>
<path d="M112 939 c-79 -39 -123 -132 -103 -218 18 -80 59 -113 285 -229 219
-112 260 -161 206 -249 -37 -62 -63 -68 -275 -67 -195 2 -213 -1 -104 -15 l64
-8 -67 -2 -68 -1 0 -39 c0 -23 -7 -46 -16 -56 -9 -9 -14 -19 -11 -22 11 -10
181 -24 302 -25 95 0 134 5 186 21 77 24 149 82 181 145 44 86 32 232 -22 281
-31 28 -34 11 -5 -30 21 -32 25 -49 24 -104 0 -36 -4 -75 -9 -86 -5 -12 -6 8
-3 50 6 81 -7 121 -56 177 -29 34 -30 36 -9 31 51 -10 -48 58 -186 128 -183
93 -228 124 -224 152 6 44 37 49 271 42 l217 -5 0 75 c0 58 -3 75 -14 75 -8 0
-16 -5 -18 -10 -2 -7 -50 -7 -149 0 -170 12 -280 3 -356 -29 -63 -28 -90 -56
-109 -112 -12 -38 -14 -39 -9 -10 9 56 41 98 101 127 29 14 54 28 54 30 0 11
-40 2 -78 -17z"/>
<path d="M4775 939 c-198 -6 -268 -22 -355 -77 -118 -75 -187 -237 -175 -410
4 -66 3 -72 -6 -42 -7 21 -9 76 -7 135 5 92 4 97 -8 60 -15 -49 -17 -164 -4
-235 23 -120 106 -237 202 -286 91 -46 150 -56 371 -61 l207 -5 0 79 0 80
-192 5 c-172 5 -199 8 -246 28 -105 45 -166 150 -166 285 0 149 66 249 188
287 17 5 98 13 179 17 l148 8 34 34 c20 19 37 49 41 69 4 19 3 32 -1 28 -5 -4
-13 -4 -19 0 -6 4 -92 4 -191 1z"/>
</g>
</svg>
